<svg width="1089" height="1702" viewBox="0 0 1089 1702" fill="none" xmlns="http://www.w3.org/2000/svg">
<path d="M111.95 1488.24C105.91 1493.02 98.5566 1495.41 89.8907 1495.41C80.6732 1495.41 72.9789 1493.34 66.7551 1489.19C60.5314 1485.04 55.8832 1478.81 52.8107 1470.52C49.7383 1462.22 48.2152 1452.03 48.2152 1439.92C48.2152 1427.82 49.8958 1417.42 53.2309 1409.2C56.566 1400.98 61.3454 1394.81 67.5692 1390.66C73.7929 1386.51 81.1459 1384.43 89.628 1384.43C98.1102 1384.43 105.463 1386.51 111.135 1390.66C116.834 1394.81 120.931 1402.48 123.452 1413.66L164.339 1397.14C161.267 1385.77 156.12 1376.48 148.898 1369.26C141.676 1362.03 132.827 1356.68 122.375 1353.16C111.897 1349.64 100.447 1347.88 87.9999 1347.88C70.1427 1347.88 54.5965 1351.53 41.4399 1358.83C28.2571 1366.16 18.1468 1376.66 11.109 1390.37C4.07116 1404.08 0.552246 1420.6 0.552246 1439.92C0.552246 1459.25 4.07116 1475.74 11.109 1489.45C18.1468 1503.16 28.2571 1513.69 41.4399 1520.99C54.6227 1528.29 70.2215 1531.94 88.2888 1531.94C100.92 1531.94 112.475 1530.1 122.953 1526.4C133.431 1522.7 142.438 1516.84 150.027 1508.8C157.617 1500.77 163.105 1490.53 166.545 1478.08L124.318 1466.16C122.165 1476.08 118.042 1483.44 112.002 1488.22L111.95 1488.24Z" fill="black"/>
<path d="M319.329 1358.83C306.251 1351.53 290.679 1347.88 272.638 1347.88C254.597 1347.88 238.972 1351.53 225.789 1358.83C212.606 1366.16 202.496 1376.66 195.458 1390.37C188.42 1404.08 184.901 1420.6 184.901 1439.92C184.901 1459.25 188.42 1475.74 195.458 1489.45C202.496 1503.16 212.606 1513.69 225.789 1520.99C238.972 1528.29 254.571 1531.94 272.638 1531.94C290.705 1531.94 306.251 1528.29 319.329 1520.99C332.407 1513.69 342.465 1503.16 349.529 1489.45C356.567 1475.74 360.085 1459.22 360.085 1439.92C360.085 1420.62 356.567 1404.1 349.529 1390.37C342.491 1376.66 332.433 1366.13 319.329 1358.83ZM307.827 1470.52C304.755 1478.81 300.29 1485.04 294.434 1489.19C288.578 1493.34 281.304 1495.41 272.638 1495.41C263.972 1495.41 256.671 1493.34 250.71 1489.19C244.749 1485.04 240.232 1478.81 237.16 1470.52C234.087 1462.22 232.564 1452.03 232.564 1439.92C232.564 1427.82 234.087 1417.42 237.16 1409.2C240.232 1400.98 244.749 1394.81 250.71 1390.66C256.671 1386.51 263.972 1384.43 272.638 1384.43C281.304 1384.43 288.552 1386.51 294.434 1390.66C300.29 1394.81 304.755 1400.98 307.827 1409.2C310.899 1417.42 312.423 1427.66 312.423 1439.92C312.423 1452.19 310.873 1462.22 307.827 1470.52Z" fill="black"/>
<path d="M438.579 1350.58H392.019V1529.26H528.18V1493.26H438.579V1350.58Z" fill="black"/>
<path d="M601.552 1456.7H675.186V1422.85H601.552V1386.59H694.12V1350.58H554.965V1529.26H697.639V1493.26H601.552V1456.7Z" fill="black"/>
<path d="M845.722 1440.74L846.799 1473.75H846.537L833.012 1447.22L777.498 1350.58H725.791V1529.26H766.941V1439.11L765.864 1406.07H766.127L779.677 1432.6L835.166 1529.26H886.873V1350.58H845.722V1440.74Z" fill="black"/>
<path d="M1002.21 1350.58H926.421V1529.26H1002.21C1030.18 1529.26 1051.6 1521.51 1066.49 1505.99C1081.38 1490.47 1088.84 1468.44 1088.84 1439.95C1088.84 1411.46 1081.41 1389.42 1066.49 1373.9C1051.6 1358.38 1030.18 1350.61 1002.21 1350.61V1350.58ZM1030.78 1480.39C1023.82 1489.5 1012.77 1494.07 997.613 1494.07H972.981V1385.77H997.613C1012.77 1385.77 1023.82 1390.34 1030.78 1399.46C1037.74 1408.57 1041.21 1422.07 1041.21 1439.92C1041.21 1457.78 1037.74 1471.28 1030.78 1480.39Z" fill="black"/>
<path d="M568.49 0.214531V200.635C552.865 202.447 536.951 205.362 520.853 209.406V0.293313L0.526367 303.156V905.6L173.583 804.995C178.52 811.692 183.983 818.047 189.839 824.113H189.681L191.966 826.398L206.488 840.946L24.3184 946.855L544.698 1247.09L1065.08 946.855L820.88 804.864C831.174 792.39 840.812 779.602 849.845 766.603L1088.87 905.573V301.607L568.49 0.214531ZM748.479 813.766C680.202 882.044 598.978 928.709 519.724 945.174C444.12 960.878 379.886 946.96 338.841 905.915L316.336 883.41C326.709 884.591 337.318 885.222 348.137 885.222C450.527 885.222 570.906 832.28 668.963 734.223C777.392 625.793 830.596 490.105 818.149 381.597L840.654 404.102C881.699 445.147 895.644 509.38 879.914 584.985C863.448 664.239 816.757 745.463 748.506 813.74L748.479 813.766ZM317.806 383.067C407.013 293.86 515.102 244.989 604.099 244.989C653.127 244.989 696.352 259.826 727.445 290.919C814.945 378.445 773.637 562.217 635.297 700.584C496.956 838.924 313.211 880.285 225.632 792.732C138.105 705.205 179.44 521.434 317.806 383.067Z" fill="black"/>
<path d="M0.526367 933.121V933.146H0.551601L0.526367 933.121Z" fill="black"/>
<path d="M23.7406 1613.82C34.061 1613.82 42.0967 1616.66 47.8478 1622.36C53.5988 1628.05 56.4875 1636.17 56.4875 1646.75C56.4875 1657.33 53.5988 1665.45 47.8478 1671.15C42.0967 1676.85 34.061 1679.68 23.7406 1679.68H0.5V1613.82H23.7406ZM23.7406 1670.6C30.7259 1670.6 36.0568 1668.52 39.7595 1664.35C43.4623 1660.2 45.3005 1654.31 45.3005 1646.72C45.3005 1639.14 43.4623 1633.28 39.7595 1629.1C36.0568 1624.95 30.7259 1622.85 23.7406 1622.85H11.188V1670.54H23.7668L23.7406 1670.6Z" fill="black"/>
<path d="M92.5168 1628.79C97.375 1628.79 101.655 1629.81 105.384 1631.89C109.113 1633.96 112.028 1636.93 114.129 1640.82C116.23 1644.7 117.281 1649.35 117.281 1654.73C117.281 1660.12 116.23 1664.77 114.129 1668.65C112.028 1672.54 109.113 1675.53 105.384 1677.58C101.655 1679.63 97.375 1680.68 92.5168 1680.68C87.6586 1680.68 83.3781 1679.66 79.6491 1677.58C75.9201 1675.51 73.0052 1672.54 70.8781 1668.65C68.751 1664.77 67.6743 1660.12 67.6743 1654.73C67.6743 1649.35 68.751 1644.7 70.8781 1640.82C73.0052 1636.93 75.9464 1633.94 79.6491 1631.89C83.3781 1629.81 87.6586 1628.79 92.5168 1628.79ZM92.5168 1637.17C89.5231 1637.17 86.9758 1637.85 84.875 1639.21C82.7741 1640.58 81.1722 1642.55 80.043 1645.15C78.9138 1647.75 78.3361 1650.93 78.3361 1654.73C78.3361 1658.54 78.8876 1661.64 80.043 1664.27C81.1722 1666.89 82.7741 1668.89 84.875 1670.25C86.9758 1671.62 89.5231 1672.3 92.5168 1672.3C95.5105 1672.3 98.0315 1671.62 100.106 1670.25C102.154 1668.89 103.756 1666.89 104.886 1664.27C106.015 1661.64 106.592 1658.46 106.592 1654.73C106.592 1651.01 106.015 1647.75 104.886 1645.15C103.756 1642.55 102.154 1640.58 100.106 1639.21C98.0315 1637.85 95.5105 1637.17 92.5168 1637.17Z" fill="black"/>
<path d="M130.726 1679.68V1629.79H140.206L140.915 1642.76L139.523 1641.37C140.442 1638.51 141.808 1636.12 143.567 1634.22C145.327 1632.33 147.428 1630.94 149.844 1630.08C152.26 1629.21 154.859 1628.79 157.591 1628.79C161.109 1628.79 164.287 1629.47 167.123 1630.84C169.959 1632.2 172.191 1634.25 173.846 1636.98C175.5 1639.71 176.341 1643.18 176.341 1647.36V1679.68H165.652V1650.64C165.652 1645.7 164.628 1642.31 162.606 1640.4C160.584 1638.51 158.037 1637.56 154.964 1637.56C152.759 1637.56 150.631 1638.09 148.583 1639.11C146.509 1640.13 144.802 1641.79 143.436 1644.05C142.071 1646.3 141.388 1649.32 141.388 1653.13V1679.68H130.7H130.726Z" fill="black"/>
<path d="M193.305 1610.22C195.17 1610.22 196.719 1610.67 197.953 1611.56C199.188 1612.46 200.133 1613.69 200.79 1615.27C201.446 1616.84 201.787 1618.6 201.787 1620.6C201.787 1623.06 201.315 1625.43 200.396 1627.74C199.45 1630.02 198.111 1632.12 196.352 1634.02C194.592 1635.91 192.465 1637.46 190.023 1638.66L185.033 1634.38C186.819 1633.73 188.421 1632.86 189.813 1631.78C191.204 1630.73 192.386 1629.52 193.358 1628.19C194.329 1626.85 195.012 1625.48 195.406 1624.09L195.012 1623.88C194.671 1624.09 194.303 1624.25 193.857 1624.38C193.41 1624.51 192.806 1624.59 192.019 1624.59C191.099 1624.59 190.128 1624.33 189.182 1623.83C188.211 1623.33 187.397 1622.57 186.74 1621.57C186.084 1620.57 185.742 1619.28 185.742 1617.68C185.742 1616.21 186.084 1614.92 186.793 1613.79C187.502 1612.67 188.395 1611.77 189.55 1611.14C190.679 1610.51 191.94 1610.2 193.332 1610.2L193.305 1610.22Z" fill="black"/>
<path d="M246.483 1629.79V1638.16H209.062V1629.79H246.483ZM229.308 1615.11V1664.71C229.308 1667.18 229.965 1668.97 231.252 1670.1C232.538 1671.23 234.298 1671.8 236.504 1671.8C238.29 1671.8 239.865 1671.51 241.204 1670.96C242.544 1670.41 243.752 1669.62 244.907 1668.63L247.297 1676.4C245.774 1677.74 243.883 1678.79 241.651 1679.55C239.419 1680.31 236.95 1680.71 234.219 1680.71C231.357 1680.71 228.731 1680.23 226.341 1679.31C223.951 1678.4 222.087 1676.87 220.747 1674.77C219.408 1672.67 218.725 1669.94 218.647 1666.55V1618.15L229.335 1615.16L229.308 1615.11Z" fill="black"/>
<path d="M308.458 1680.68C303.468 1680.68 298.899 1679.71 294.776 1677.79C290.653 1675.87 287.397 1673.14 285.007 1669.6L292.386 1663.22C293.857 1665.95 295.957 1668.13 298.715 1669.76C301.472 1671.38 304.781 1672.2 308.641 1672.2C311.714 1672.2 314.13 1671.67 315.916 1670.6C317.701 1669.52 318.62 1668.05 318.62 1666.11C318.62 1664.84 318.2 1663.72 317.386 1662.77C316.546 1661.8 314.97 1661.06 312.659 1660.54L302.181 1658.33C296.85 1657.26 293.069 1655.55 290.81 1653.19C288.552 1650.82 287.423 1647.8 287.423 1644.15C287.423 1641.42 288.211 1638.9 289.813 1636.56C291.414 1634.23 293.752 1632.36 296.85 1630.92C299.949 1629.5 303.652 1628.76 307.985 1628.76C312.974 1628.76 317.229 1629.66 320.747 1631.42C324.266 1633.17 326.971 1635.7 328.836 1638.95L321.456 1645.15C320.196 1642.5 318.331 1640.5 315.863 1639.21C313.394 1637.93 310.847 1637.27 308.169 1637.27C306.042 1637.27 304.203 1637.53 302.68 1638.06C301.157 1638.58 299.975 1639.32 299.188 1640.27C298.4 1641.18 297.98 1642.29 297.98 1643.55C297.98 1644.89 298.479 1646.04 299.476 1647.04C300.474 1648.04 302.26 1648.8 304.86 1649.32L316.231 1651.71C321.01 1652.63 324.398 1654.24 326.367 1656.44C328.337 1658.67 329.308 1661.38 329.308 1664.58C329.308 1667.79 328.468 1670.6 326.814 1673.01C325.159 1675.45 322.743 1677.32 319.618 1678.66C316.493 1680 312.764 1680.65 308.431 1680.65L308.458 1680.68Z" fill="black"/>
<path d="M364.13 1680.68C359.14 1680.68 354.755 1679.66 350.947 1677.58C347.165 1675.51 344.198 1672.54 342.123 1668.65C340.023 1664.77 338.972 1660.12 338.972 1654.73C338.972 1649.35 340.023 1644.7 342.123 1640.82C344.224 1636.93 347.139 1633.94 350.868 1631.89C354.597 1629.81 358.825 1628.79 363.552 1628.79C368.279 1628.79 372.533 1629.79 375.921 1631.78C379.308 1633.78 381.908 1636.51 383.694 1639.98C385.48 1643.44 386.399 1647.36 386.399 1651.74C386.399 1652.95 386.372 1654.08 386.294 1655.13C386.215 1656.21 386.136 1657.12 386.005 1657.91H345.879V1649.72H381.304L376.026 1651.32C376.026 1646.8 374.897 1643.31 372.638 1640.9C370.38 1638.48 367.281 1637.24 363.368 1637.24C360.506 1637.24 358.011 1637.9 355.884 1639.24C353.757 1640.58 352.129 1642.55 351 1645.18C349.87 1647.8 349.293 1651.01 349.293 1654.81C349.293 1658.62 349.897 1661.69 351.078 1664.29C352.286 1666.89 353.967 1668.86 356.173 1670.18C358.379 1671.51 360.952 1672.17 363.946 1672.17C367.281 1672.17 369.96 1671.54 372.034 1670.28C374.109 1669.02 375.737 1667.26 376.919 1665L385.401 1668.99C384.193 1671.38 382.591 1673.46 380.569 1675.24C378.547 1677 376.131 1678.34 373.347 1679.29C370.564 1680.23 367.491 1680.68 364.156 1680.68H364.13Z" fill="black"/>
<path d="M410.243 1607.33V1665.71C410.243 1668.18 410.663 1669.86 411.53 1670.81C412.397 1671.73 413.815 1672.2 415.81 1672.2C417.018 1672.2 418.016 1672.12 418.857 1671.94C419.697 1671.78 420.721 1671.46 422.008 1670.99L420.8 1678.97C419.671 1679.5 418.384 1679.92 416.913 1680.21C415.443 1680.5 413.972 1680.65 412.528 1680.65C408.064 1680.65 404.781 1679.5 402.706 1677.21C400.632 1674.93 399.555 1671.38 399.555 1666.58V1607.31H410.243V1607.33Z" fill="black"/>
<path d="M441.362 1607.33V1665.71C441.362 1668.18 441.809 1669.86 442.649 1670.81C443.489 1671.75 444.934 1672.2 446.93 1672.2C448.138 1672.2 449.136 1672.12 449.976 1671.94C450.816 1671.78 451.867 1671.46 453.127 1670.99L451.919 1678.97C450.79 1679.5 449.503 1679.92 448.033 1680.21C446.562 1680.5 445.118 1680.65 443.647 1680.65C439.183 1680.65 435.926 1679.5 433.826 1677.21C431.725 1674.93 430.674 1671.38 430.674 1666.58V1607.31H441.362V1607.33Z" fill="black"/>
<path d="M533.379 1629.79L511.53 1685.56C510.06 1689.42 508.484 1692.47 506.777 1694.76C505.07 1697.01 503.127 1698.64 500.947 1699.64C498.742 1700.64 496.194 1701.14 493.253 1701.14C490.863 1701.14 488.658 1700.82 486.609 1700.19C484.587 1699.56 482.801 1698.72 481.278 1697.64L483.878 1689.37C485.139 1690.45 486.478 1691.24 487.922 1691.76C489.34 1692.29 490.89 1692.55 492.57 1692.55C494.356 1692.55 495.984 1692.08 497.402 1691.11C498.82 1690.13 500.107 1688.22 501.236 1685.38L503.442 1680L498.164 1667.63L482.591 1629.81H494.566L505.648 1661.14L508.537 1670.52L511.819 1660.25L522.297 1629.81H533.379V1629.79Z" fill="black"/>
<path d="M563.815 1628.79C568.673 1628.79 572.954 1629.81 576.683 1631.89C580.412 1633.96 583.327 1636.93 585.428 1640.82C587.528 1644.7 588.579 1649.35 588.579 1654.73C588.579 1660.12 587.528 1664.77 585.428 1668.65C583.327 1672.54 580.412 1675.53 576.683 1677.58C572.954 1679.63 568.673 1680.68 563.815 1680.68C558.957 1680.68 554.676 1679.66 550.947 1677.58C547.218 1675.51 544.304 1672.54 542.176 1668.65C540.049 1664.77 538.973 1660.12 538.973 1654.73C538.973 1649.35 540.023 1644.7 542.176 1640.82C544.304 1636.93 547.218 1633.94 550.947 1631.89C554.676 1629.81 558.957 1628.79 563.815 1628.79ZM563.815 1637.17C560.821 1637.17 558.274 1637.85 556.173 1639.21C554.072 1640.58 552.471 1642.55 551.341 1645.15C550.212 1647.75 549.634 1650.93 549.634 1654.73C549.634 1658.54 550.186 1661.64 551.341 1664.27C552.471 1666.89 554.072 1668.89 556.173 1670.25C558.274 1671.62 560.821 1672.3 563.815 1672.3C566.809 1672.3 569.33 1671.62 571.404 1670.25C573.479 1668.89 575.055 1666.89 576.184 1664.27C577.313 1661.64 577.891 1658.46 577.891 1654.73C577.891 1651.01 577.313 1647.75 576.184 1645.15C575.055 1642.55 573.453 1640.58 571.404 1639.21C569.33 1637.85 566.809 1637.17 563.815 1637.17Z" fill="black"/>
<path d="M619.803 1680.68C616.546 1680.68 613.526 1680.08 610.769 1678.89C608.012 1677.69 605.806 1675.77 604.125 1673.12C602.471 1670.46 601.63 1667 601.63 1662.74V1629.81H612.318V1660.04C612.318 1664.56 613.29 1667.68 615.207 1669.36C617.124 1671.07 619.829 1671.91 623.295 1671.91C624.95 1671.91 626.578 1671.62 628.127 1671.07C629.677 1670.52 631.095 1669.6 632.381 1668.36C633.642 1667.13 634.614 1665.55 635.323 1663.64C636.032 1661.72 636.373 1659.44 636.373 1656.86V1629.81H647.061V1679.71H637.686L637.187 1671.62C635.454 1674.75 633.117 1677.06 630.202 1678.5C627.261 1679.97 623.821 1680.71 619.829 1680.71L619.803 1680.68Z" fill="black"/>
<path d="M663.71 1679.68V1629.79H672.797L673.795 1638.77C675.134 1635.51 677.103 1633.04 679.729 1631.34C682.355 1629.63 685.612 1628.79 689.472 1628.79C690.47 1628.79 691.468 1628.87 692.466 1629.03C693.464 1629.18 694.304 1629.45 694.961 1629.79L693.464 1639.16C692.728 1638.9 691.914 1638.69 691.021 1638.51C690.129 1638.32 688.921 1638.27 687.371 1638.27C685.297 1638.27 683.275 1638.82 681.279 1639.92C679.283 1641.03 677.628 1642.65 676.342 1644.86C675.055 1647.07 674.398 1649.85 674.398 1653.24V1679.68H663.71Z" fill="black"/>
<path d="M736.846 1679.68V1613.82H762.792C770.696 1613.82 776.5 1615.42 780.15 1618.6C783.8 1621.78 785.638 1626.22 785.638 1631.86C785.638 1635.33 784.64 1638.4 782.645 1641.11C780.649 1643.81 777.708 1645.52 773.874 1646.25V1646.36C778.128 1647.01 781.437 1648.77 783.8 1651.61C786.164 1654.45 787.345 1657.73 787.345 1661.43C787.345 1667.08 785.271 1671.54 781.148 1674.8C777.025 1678.05 771.037 1679.68 763.186 1679.68H736.846ZM747.324 1642.16H762.004C770.381 1642.16 774.583 1638.93 774.583 1632.47C774.583 1626.01 770.381 1622.78 762.004 1622.78H747.324V1642.13V1642.16ZM747.324 1670.81H763.684C767.886 1670.81 771.011 1669.94 773.112 1668.21C775.213 1666.47 776.263 1664.06 776.263 1660.93C776.263 1657.81 775.213 1655.36 773.112 1653.66C771.011 1651.92 767.86 1651.06 763.684 1651.06H747.324V1670.81Z" fill="black"/>
<path d="M806.804 1621.38C804.467 1621.38 802.708 1620.81 801.474 1619.62C800.239 1618.47 799.635 1616.81 799.635 1614.69C799.635 1612.56 800.239 1610.93 801.474 1609.8C802.708 1608.67 804.493 1608.1 806.804 1608.1C809.115 1608.1 810.822 1608.67 812.057 1609.8C813.291 1610.93 813.895 1612.56 813.895 1614.69C813.895 1616.81 813.291 1618.47 812.057 1619.62C810.822 1620.78 809.089 1621.38 806.804 1621.38ZM812.083 1629.76V1679.66H801.395V1629.76H812.083Z" fill="black"/>
<path d="M860.48 1629.79V1638.16H823.059V1629.79H860.48ZM843.306 1615.11V1664.71C843.306 1667.18 843.962 1668.97 845.249 1670.1C846.536 1671.23 848.295 1671.8 850.501 1671.8C852.287 1671.8 853.863 1671.51 855.202 1670.96C856.541 1670.41 857.776 1669.62 858.905 1668.63L861.294 1676.4C859.771 1677.74 857.881 1678.79 855.648 1679.55C853.416 1680.31 850.948 1680.71 848.217 1680.71C845.354 1680.71 842.728 1680.23 840.338 1679.31C837.949 1678.4 836.084 1676.87 834.745 1674.77C833.406 1672.67 832.723 1669.94 832.644 1666.55V1618.15L843.332 1615.16L843.306 1615.11Z" fill="black"/>
<path d="M892.623 1628.79C896.615 1628.79 900.029 1629.37 902.839 1630.55C905.675 1631.7 908.038 1633.36 909.981 1635.49C911.898 1637.61 913.369 1640.05 914.367 1642.76L904.283 1646.75C903.416 1643.68 902.051 1641.34 900.134 1639.71C898.243 1638.09 895.748 1637.27 892.702 1637.27C889.656 1637.27 887.135 1637.95 885.008 1639.32C882.881 1640.69 881.279 1642.65 880.176 1645.25C879.073 1647.85 878.521 1651.03 878.521 1654.84C878.521 1658.65 879.073 1661.72 880.228 1664.32C881.357 1666.92 882.986 1668.89 885.113 1670.2C887.24 1671.54 889.761 1672.2 892.702 1672.2C894.96 1672.2 896.93 1671.8 898.584 1671.04C900.239 1670.28 901.631 1669.18 902.734 1667.76C903.836 1666.34 904.572 1664.58 904.992 1662.51L914.682 1665.79C913.763 1668.78 912.292 1671.38 910.349 1673.62C908.38 1675.85 905.937 1677.58 903.022 1678.82C900.081 1680.05 896.746 1680.65 892.938 1680.65C888.001 1680.65 883.668 1679.63 879.861 1677.55C876.053 1675.48 873.112 1672.51 871.037 1668.63C868.936 1664.74 867.886 1660.09 867.886 1654.71C867.886 1649.32 868.936 1644.68 871.037 1640.79C873.138 1636.9 876.053 1633.91 879.808 1631.86C883.563 1629.79 887.844 1628.76 892.623 1628.76V1628.79Z" fill="black"/>
<path d="M948.795 1628.79C953.653 1628.79 957.934 1629.81 961.663 1631.89C965.392 1633.96 968.307 1636.93 970.408 1640.82C972.508 1644.7 973.559 1649.35 973.559 1654.73C973.559 1660.12 972.508 1664.77 970.408 1668.65C968.307 1672.54 965.392 1675.53 961.663 1677.58C957.934 1679.63 953.653 1680.68 948.795 1680.68C943.937 1680.68 939.656 1679.66 935.927 1677.58C932.198 1675.51 929.284 1672.54 927.156 1668.65C925.029 1664.77 923.953 1660.12 923.953 1654.73C923.953 1649.35 925.003 1644.7 927.156 1640.82C929.284 1636.93 932.198 1633.94 935.927 1631.89C939.656 1629.81 943.937 1628.79 948.795 1628.79ZM948.795 1637.17C945.801 1637.17 943.254 1637.85 941.153 1639.21C939.053 1640.58 937.451 1642.55 936.321 1645.15C935.192 1647.75 934.614 1650.93 934.614 1654.73C934.614 1658.54 935.166 1661.64 936.321 1664.27C937.451 1666.89 939.053 1668.89 941.153 1670.25C943.254 1671.62 945.801 1672.3 948.795 1672.3C951.789 1672.3 954.31 1671.62 956.384 1670.25C958.459 1668.89 960.035 1666.89 961.164 1664.27C962.293 1661.64 962.871 1658.46 962.871 1654.73C962.871 1651.01 962.293 1647.75 961.164 1645.15C960.035 1642.55 958.433 1640.58 956.384 1639.21C954.31 1637.85 951.789 1637.17 948.795 1637.17Z" fill="black"/>
<path d="M992.414 1621.38C990.077 1621.38 988.317 1620.81 987.083 1619.62C985.849 1618.47 985.245 1616.81 985.245 1614.69C985.245 1612.56 985.849 1610.93 987.083 1609.8C988.317 1608.67 990.103 1608.1 992.414 1608.1C994.725 1608.1 996.432 1608.67 997.666 1609.8C998.9 1610.93 999.504 1612.56 999.504 1614.69C999.504 1616.81 998.9 1618.47 997.666 1619.62C996.432 1620.78 994.698 1621.38 992.414 1621.38ZM997.692 1629.76V1679.66H987.004V1629.76H997.692Z" fill="black"/>
<path d="M1014.37 1679.68V1629.79H1023.85L1024.56 1642.76L1023.16 1641.37C1024.08 1638.51 1025.45 1636.12 1027.21 1634.22C1028.97 1632.33 1031.07 1630.94 1033.49 1630.08C1035.9 1629.21 1038.5 1628.79 1041.23 1628.79C1044.75 1628.79 1047.93 1629.47 1050.76 1630.84C1053.6 1632.2 1055.83 1634.25 1057.51 1636.98C1059.17 1639.71 1060.01 1643.18 1060.01 1647.36V1679.68H1049.32V1650.64C1049.32 1645.7 1048.3 1642.31 1046.27 1640.4C1044.25 1638.51 1041.7 1637.56 1038.63 1637.56C1036.43 1637.56 1034.3 1638.09 1032.25 1639.11C1030.18 1640.13 1028.47 1641.79 1027.1 1644.05C1025.74 1646.3 1025.06 1649.32 1025.06 1653.13V1679.68H1014.37Z" fill="black"/>
<path d="M1081.52 1666.21C1083.77 1666.21 1085.59 1666.87 1086.95 1668.15C1088.32 1669.44 1089 1671.2 1089 1673.41C1089 1675.61 1088.32 1677.37 1086.95 1678.68C1085.59 1680.02 1083.77 1680.68 1081.52 1680.68C1079.26 1680.68 1077.34 1680.02 1075.98 1678.68C1074.61 1677.34 1073.93 1675.59 1073.93 1673.41C1073.93 1671.23 1074.61 1669.47 1075.98 1668.15C1077.34 1666.84 1079.18 1666.21 1081.52 1666.21Z" fill="black"/>
</svg>
