<svg width="1549" height="351" viewBox="0 0 1549 351" fill="none" xmlns="http://www.w3.org/2000/svg">
<path d="M564.586 225.561C560.945 237.862 555.174 248.145 547.275 256.411C539.403 264.677 530.075 270.841 519.319 274.876C508.562 278.911 496.741 280.928 483.855 280.928C465.003 280.928 448.728 276.978 434.974 269.104C421.22 261.231 410.66 249.967 403.265 235.368C395.869 220.77 392.172 203.257 392.172 182.887C392.172 162.517 395.869 145.004 403.265 130.406C410.66 115.807 421.248 104.543 434.974 96.6698C448.7 88.7963 464.807 84.8455 483.267 84.8455C496.349 84.8455 508.142 86.6107 518.73 90.1692C529.291 93.7278 538.283 99.1636 545.678 106.477C553.073 113.79 558.508 123.009 561.981 134.16L525.93 149.459C522.652 137.915 517.666 129.705 510.943 124.802C504.22 119.898 495.564 117.461 485.004 117.461C474.443 117.461 465.536 119.954 457.748 124.97C449.961 129.985 443.966 137.327 439.736 147.022C435.507 156.744 433.406 168.709 433.406 182.915C433.406 197.121 435.366 208.861 439.316 218.668C443.266 228.475 449.064 235.873 456.768 240.888C464.443 245.904 473.883 248.397 485.032 248.397C495.424 248.397 504.388 245.623 511.98 240.048C519.571 234.472 524.893 226.01 527.974 214.662L564.586 225.617V225.561Z" fill="black"/>
<path d="M680.75 84.8152C699.575 84.8152 715.822 88.766 729.491 96.6396C743.133 104.513 753.666 115.777 761.061 130.375C768.456 144.974 772.154 162.486 772.154 182.857C772.154 203.227 768.456 220.74 761.061 235.338C753.666 249.964 743.133 261.2 729.491 269.074C715.85 276.947 699.603 280.898 680.75 280.898C661.898 280.898 645.623 276.947 631.869 269.074C618.115 261.2 607.555 249.936 600.16 235.338C592.765 220.74 589.067 203.227 589.067 182.857C589.067 162.486 592.765 144.974 600.16 130.375C607.555 115.777 618.143 104.513 631.869 96.6396C645.595 88.766 661.898 84.8152 680.75 84.8152ZM680.75 117.402C669.994 117.402 660.862 119.896 653.355 124.912C645.847 129.927 640.133 137.268 636.211 146.963C632.262 156.686 630.301 168.651 630.301 182.857C630.301 197.063 632.262 208.803 636.211 218.61C640.161 228.417 645.875 235.814 653.355 240.83C660.862 245.845 669.966 248.339 680.75 248.339C691.535 248.339 700.359 245.845 707.866 240.83C715.373 235.842 721.088 228.417 725.01 218.61C728.959 208.803 730.92 196.895 730.92 182.857C730.92 168.819 728.931 156.658 725.01 146.963C721.06 137.268 715.345 129.899 707.866 124.912C700.359 119.924 691.339 117.402 680.75 117.402Z" fill="black"/>
<path d="M852.017 246.041H952.356V278.04H812.24V87.7009H852.017V246.041Z" fill="black"/>
<path d="M985.524 278.04V87.7009H1128.25V119.7H1025.3V166.997H1106.31V197.567H1025.3V246.013H1132.28V278.012H985.524V278.04Z" fill="black"/>
<path d="M1331.5 87.7009V278.04H1285.95L1219.34 166.129L1202.9 134.97H1202.62L1203.76 167.838V278.012H1168.02V87.7009H1213.29L1279.9 199.304L1296.34 230.742H1296.93L1295.78 197.875V87.7009H1331.53H1331.5Z" fill="black"/>
<path d="M1454.61 87.7009C1484.42 87.7009 1507.47 95.9107 1523.8 112.358C1540.13 128.806 1548.31 152.315 1548.31 182.884C1548.31 213.454 1540.13 236.711 1523.8 253.242C1507.47 269.774 1484.39 278.04 1454.61 278.04H1381.08V87.7009H1454.61ZM1452.6 246.321C1470.66 246.321 1484.25 240.886 1493.38 230.014C1502.51 219.142 1507.08 203.423 1507.08 182.856C1507.08 162.29 1502.51 146.571 1493.38 135.699C1484.25 124.827 1470.66 119.391 1452.6 119.391H1420.89V246.293H1452.6V246.321Z" fill="black"/>
<path d="M97.7071 248.817C80.4237 248.817 64.989 243.465 53.8122 232.285C23.9794 202.444 35.6044 142.286 79.7234 98.1824C123.814 54.0511 183.956 42.4508 213.789 72.264C243.622 102.105 231.997 162.264 187.878 206.367C160.314 233.939 126.476 248.817 97.7071 248.817ZM169.642 68.8175C144.627 68.8175 114.234 82.5473 89.1635 107.625C50.2827 146.517 38.6577 198.185 63.2523 222.787C87.8749 247.388 139.501 235.76 178.382 196.868C217.263 157.977 228.888 106.308 204.293 81.7067C195.553 72.9645 183.396 68.7895 169.614 68.7895L169.642 68.8175Z" fill="black"/>
<path d="M72.0748 231.643L95.0727 254.647C106.614 266.191 124.654 270.114 145.915 265.687C168.184 261.063 191.014 247.922 210.202 228.728C229.391 209.535 242.5 186.699 247.15 164.423C251.576 143.156 247.655 125.111 236.114 113.567L213.116 90.5625V71.6211L245.582 104.096C260.4 118.919 265.638 141.335 260.26 167.141C255.106 191.938 240.679 217.184 219.67 238.199C198.661 259.214 173.423 273.644 148.632 278.8C141.993 280.173 135.606 280.845 129.5 280.845C111.824 280.845 96.6134 275.129 85.6047 264.118L53.1387 231.643H72.0748Z" fill="black"/>
<path d="M84.4284 102.917C103.421 83.9195 125.382 71.1985 146.251 65.5665V0L0 85.1804V254.56L54.4835 222.87C32.6621 194.29 45.1275 142.229 84.4564 102.917H84.4284ZM214.937 233.462C173.367 275.043 117.595 286.643 90.3389 259.38L63.8675 232.901L6.69489 266.161L152.946 350.585L299.197 266.161L224.685 222.814C221.66 226.457 218.41 230.015 214.965 233.462H214.937ZM183.143 201.631C183.787 200.986 184.375 200.342 184.992 199.726C184.375 200.37 183.759 201.015 183.143 201.631ZM159.641 0V62.9046C179.249 60.4669 196.953 64.894 209.054 76.9986C210.427 78.3716 211.687 79.8286 212.864 81.3417L213.144 81.0615L240.876 108.801C263.678 131.609 259.28 174.368 232.92 212.082L305.92 254.532V84.7321L159.641 0Z" fill="black"/>
</svg>
