<svg width="1108" height="1559" viewBox="0 0 1108 1559" fill="none" xmlns="http://www.w3.org/2000/svg">
<path d="M113.427 1514.32C107.277 1519.19 99.804 1521.6 90.9588 1521.6C81.5933 1521.6 73.7414 1519.47 67.4032 1515.26C61.0649 1511.05 56.3349 1504.72 53.213 1496.25C50.0912 1487.79 48.5303 1477.43 48.5303 1465.14C48.5303 1452.84 50.2331 1442.25 53.6387 1433.88C57.0444 1425.51 61.9163 1419.22 68.2546 1415.01C74.5928 1410.8 82.0663 1408.67 90.7223 1408.67C99.3783 1408.67 106.852 1410.8 112.622 1415.01C118.393 1419.22 122.603 1427.02 125.157 1438.42L166.781 1421.63C163.66 1410.04 158.409 1400.59 151.078 1393.26C143.746 1385.93 134.712 1380.44 124.069 1376.85C113.427 1373.25 101.743 1371.45 89.0668 1371.45C70.8561 1371.45 55.0577 1375.19 41.6717 1382.61C28.2384 1390.04 17.9742 1400.77 10.7845 1414.72C3.59484 1428.68 0 1445.51 0 1465.18C0 1484.86 3.59484 1501.64 10.7372 1515.59C17.9269 1529.54 28.1911 1540.23 41.6244 1547.7C55.0104 1555.13 70.9034 1558.86 89.3033 1558.86C102.169 1558.86 113.9 1556.97 124.589 1553.24C135.232 1549.5 144.408 1543.5 152.166 1535.31C159.876 1527.13 165.457 1516.73 168.957 1504.06L125.961 1491.95C123.738 1502.07 119.576 1509.54 113.427 1514.41V1514.32Z" fill="black"/>
<path d="M324.481 1382.66C311.143 1375.24 295.297 1371.5 276.944 1371.5C258.592 1371.5 242.699 1375.24 229.266 1382.66C215.832 1390.09 205.568 1400.82 198.378 1414.77C191.236 1428.72 187.641 1445.56 187.641 1465.18C187.641 1484.81 191.236 1501.64 198.378 1515.59C205.568 1529.54 215.832 1540.23 229.266 1547.7C242.652 1555.13 258.545 1558.86 276.944 1558.86C295.344 1558.86 311.143 1555.13 324.481 1547.7C337.82 1540.28 348.037 1529.54 355.227 1515.59C362.369 1501.64 365.964 1484.86 365.964 1465.18C365.964 1445.51 362.369 1428.72 355.227 1414.77C348.037 1400.82 337.82 1390.13 324.481 1382.66ZM312.751 1496.3C309.629 1504.77 305.088 1511.1 299.128 1515.31C293.168 1519.52 285.742 1521.65 276.944 1521.65C268.147 1521.65 260.673 1519.52 254.619 1515.31C248.564 1511.1 243.976 1504.77 240.854 1496.3C237.732 1487.84 236.171 1477.48 236.171 1465.18C236.171 1452.89 237.732 1442.3 240.854 1433.92C243.976 1425.55 248.564 1419.26 254.619 1415.06C260.673 1410.85 268.099 1408.72 276.944 1408.72C285.79 1408.72 293.168 1410.85 299.128 1415.06C305.088 1419.26 309.629 1425.55 312.751 1433.92C315.873 1442.3 317.434 1452.7 317.434 1465.18C317.434 1477.67 315.873 1487.88 312.751 1496.3Z" fill="black"/>
<path d="M445.901 1374.24H398.506V1556.07H537.097V1519.42H445.901V1374.24Z" fill="black"/>
<path d="M611.784 1482.25H686.708V1447.78H611.784V1410.89H706.007V1374.24H564.389V1556.07H709.602V1519.42H611.784V1482.25Z" fill="black"/>
<path d="M860.348 1465.99L861.436 1499.61H861.152L847.388 1472.61L790.911 1374.24H738.266V1556.07H780.126V1464.33L779.039 1430.71H779.322L793.087 1457.71L849.611 1556.07H902.209V1374.24H860.348V1465.99Z" fill="black"/>
<path d="M1019.61 1374.25H942.462V1556.07H1019.61C1048.08 1556.07 1069.89 1548.18 1085.07 1532.38C1100.21 1516.59 1107.82 1494.17 1107.82 1465.14C1107.82 1436.1 1100.26 1413.73 1085.07 1397.89C1069.94 1382.1 1048.08 1374.2 1019.61 1374.2V1374.25ZM1048.7 1506.37C1041.6 1515.64 1030.39 1520.28 1014.93 1520.28H989.857V1410.09H1014.93C1030.35 1410.09 1041.6 1414.73 1048.7 1423.99C1055.79 1433.26 1059.29 1446.98 1059.29 1465.18C1059.29 1483.39 1055.75 1497.1 1048.7 1506.37Z" fill="black"/>
<path d="M578.154 0V203.961C562.261 205.806 546.037 208.785 529.671 212.899V0.0945798L0 308.283V921.397L176.147 819.014C181.161 825.824 186.742 832.302 192.702 838.497H192.513L194.831 840.815L209.636 855.616L24.2178 963.39L553.936 1268.93L1083.65 963.39L835.09 818.872C845.59 806.198 855.382 793.146 864.558 779.952L1107.87 921.397V306.722L578.154 0ZM761.348 827.952C691.864 897.421 609.135 944.947 528.488 961.688C451.53 977.672 386.114 963.485 344.347 921.728L321.454 898.839C332.002 900.069 342.787 900.684 353.808 900.684C458.01 900.684 580.566 846.82 680.37 746.991C790.769 636.617 844.928 498.578 832.204 388.108L855.098 410.997C896.864 452.754 911.054 518.156 895.067 595.096C878.275 675.726 830.785 758.436 761.301 827.904L761.348 827.952ZM322.968 389.622C413.784 298.825 523.805 249.123 614.386 249.123C664.288 249.123 708.325 264.209 739.969 295.846C829.035 384.94 786.985 571.971 646.172 712.754C505.358 853.536 318.332 895.624 229.171 806.529C140.057 717.435 182.154 530.404 322.968 389.622Z" fill="black"/>
</svg>
