<?xml version="1.0" encoding="utf-8"?>
<!-- Generator: Adobe Illustrator 26.3.1, SVG Export Plug-In . SVG Version: 6.00 Build 0)  -->
<svg version="1.1" id="Layer_1" xmlns="http://www.w3.org/2000/svg" xmlns:xlink="http://www.w3.org/1999/xlink" x="0px" y="0px"
	 viewBox="0 0 850.4 850.4" style="enable-background:new 0 0 850.4 850.4;" xml:space="preserve">
<style type="text/css">
	.st0{fill:#FF4228;}
</style>
<g>
	<path class="st0" d="M260.4,667.9c-2.3,1.8-5.1,2.7-8.4,2.7c-3.5,0-6.4-0.8-8.8-2.4c-2.4-1.6-4.1-4-5.3-7.1
		c-1.2-3.2-1.8-7-1.8-11.6c0-4.7,0.6-8.6,1.9-11.7c1.3-3.1,3.1-5.5,5.5-7.1c2.4-1.6,5.2-2.4,8.4-2.4c3.3,0,6,0.8,8.2,2.4
		c2.2,1.6,3.7,4.5,4.7,8.8l15.6-6.3c-1.2-4.3-3.1-7.9-5.9-10.6c-2.7-2.7-6.1-4.8-10.1-6.1c-4-1.3-8.4-2-13.1-2
		c-6.8,0-12.7,1.4-17.7,4.2c-5,2.8-8.9,6.8-11.5,12c-2.7,5.2-4,11.5-4,18.9c0,7.4,1.3,13.6,4,18.9c2.7,5.2,6.5,9.2,11.5,12
		c5,2.8,11,4.2,17.8,4.2c4.8,0,9.2-0.7,13.2-2.1c4-1.4,7.4-3.6,10.3-6.7c2.9-3.1,5-7,6.3-11.7l-16.1-4.5
		C264.3,663.2,262.7,666,260.4,667.9z"/>
	<path class="st0" d="M339.4,618.6c-5-2.8-10.9-4.2-17.8-4.2c-6.9,0-12.8,1.4-17.8,4.2c-5,2.8-8.9,6.8-11.5,12
		c-2.7,5.2-4,11.5-4,18.9c0,7.4,1.3,13.6,4,18.9c2.7,5.2,6.5,9.2,11.5,12c5,2.8,11,4.2,17.8,4.2c6.9,0,12.8-1.4,17.8-4.2
		c5-2.8,8.8-6.8,11.5-12c2.7-5.2,4-11.5,4-18.9c0-7.4-1.3-13.6-4-18.9C348.2,625.4,344.4,621.4,339.4,618.6z M335,661.1
		c-1.2,3.2-2.9,5.5-5.1,7.1c-2.2,1.6-5,2.4-8.3,2.4c-3.3,0-6.1-0.8-8.4-2.4c-2.3-1.6-4-4-5.2-7.1c-1.2-3.2-1.8-7-1.8-11.6
		c0-4.7,0.6-8.6,1.8-11.7c1.2-3.1,2.9-5.5,5.2-7.1s5.1-2.4,8.4-2.4c3.3,0,6.1,0.8,8.3,2.4c2.2,1.6,3.9,3.9,5.1,7.1
		c1.2,3.1,1.8,7,1.8,11.7C336.7,654.1,336.2,657.9,335,661.1z"/>
	<polygon class="st0" points="384.8,615.4 367.1,615.4 367.1,683.5 418.9,683.5 418.9,669.8 384.8,669.8 	"/>
	<polygon class="st0" points="446.8,655.8 474.9,655.8 474.9,643 446.8,643 446.8,629.1 482.1,629.1 482.1,615.4 429.1,615.4 
		429.1,683.5 483.4,683.5 483.4,669.8 446.8,669.8 	"/>
	<polygon class="st0" points="539.8,649.8 540.2,662.3 540.1,662.3 535,652.2 513.9,615.4 494.2,615.4 494.2,683.5 509.8,683.5 
		509.8,649.1 509.4,636.6 509.5,636.6 514.7,646.7 535.8,683.5 555.5,683.5 555.5,615.4 539.8,615.4 	"/>
	<path class="st0" d="M599.4,615.4h-28.9v68h28.9c10.7,0,18.8-3,24.5-8.9c5.7-5.9,8.5-14.3,8.5-25.2s-2.8-19.2-8.5-25.2
		C618.2,618.4,610.1,615.4,599.4,615.4z M610.3,664.9c-2.6,3.5-6.9,5.2-12.6,5.2h-9.4v-41.2h9.4c5.8,0,10,1.7,12.6,5.2
		c2.6,3.5,4,8.6,4,15.4C614.3,656.3,612.9,661.4,610.3,664.9z"/>
	<path class="st0" d="M434.3,101.2v76.3c-6,0.7-12,1.8-18.1,3.3v-79.6L218,216.6V446l65.9-38.3c1.9,2.6,4,5,6.2,7.3H290l0.9,0.9
		c0,0,0,0,0,0c0,0,0,0,0,0l5.5,5.5L227,461.7L425.2,576l198.2-114.3l-93-54.1c3.9-4.7,7.6-9.6,11-14.6l91,52.9V216L434.3,101.2z
		 M338.8,247c34-34,75.1-52.6,109-52.6c18.7,0,35.1,5.6,47,17.5c33.3,33.3,17.6,103.3-35.1,156C407,420.6,337,436.3,303.7,403
		C270.4,369.7,286.1,299.7,338.8,247z M552.8,323.9c-6.3,30.2-24,61.1-50,87.1c-26,26-56.9,43.8-87.1,50c-28.8,6-53.3,0.7-68.9-15
		l-8.6-8.6c3.9,0.5,8,0.7,12.1,0.7c39,0,84.8-20.2,122.2-57.5c41.3-41.3,61.6-93,56.8-134.3l8.6,8.6
		C553.5,270.7,558.8,295.1,552.8,323.9z"/>
	<polygon class="st0" points="218,456.5 218,456.5 218,456.5 	"/>
	<polygon class="st0" points="632.4,456.5 632.4,456.5 632.4,456.5 	"/>
</g>
</svg>
