<?xml version="1.0" encoding="utf-8"?>
<!-- Generator: Adobe Illustrator 26.3.1, SVG Export Plug-In . SVG Version: 6.00 Build 0)  -->
<svg version="1.1" id="Layer_1" xmlns="http://www.w3.org/2000/svg" xmlns:xlink="http://www.w3.org/1999/xlink" x="0px" y="0px"
	 viewBox="0 0 850.4 850.4" style="enable-background:new 0 0 850.4 850.4;" xml:space="preserve">
<style type="text/css">
	.st0{fill:#231F20;}
</style>
<g>
	<path class="st0" d="M154,361.2L154,361.2c-2.1,0.2-4.3,0.6-6.5,1.2v-28.5l-70.9,41.3v82.1l23.6-13.7c0.7,0.9,1.4,1.8,2.2,2.6h0
		l0.3,0.3l2,2L79.8,463l70.9,40.9l70.9-40.9l-33.3-19.3c1.4-1.7,2.7-3.4,4-5.2l32.6,18.9V375L154,333.9V361.2z M191,389
		c5.6,5.6,7.5,14.3,5.4,24.7c-2.2,10.8-8.6,21.9-17.9,31.2c-9.3,9.3-20.4,15.7-31.2,17.9c-10.3,2.1-19.1,0.2-24.7-5.4l-3.1-3.1
		c1.4,0.2,2.9,0.2,4.3,0.2c14,0,30.4-7.2,43.7-20.6c14.8-14.8,22-33.3,20.3-48.1L191,389z M175.6,373.5c11.9,11.9,6.3,37-12.6,55.8
		c-18.9,18.9-43.9,24.5-55.8,12.6c-11.9-11.9-6.3-37,12.6-55.8c12.2-12.2,26.9-18.8,39-18.8C165.5,367.3,171.4,369.3,175.6,373.5z"
		/>
	<path class="st0" d="M338.3,449c3.5-3.7,6.1-8.5,7.7-14.2l-19.6-5.5c-1,4.6-2.9,8-5.7,10.2c-2.8,2.2-6.2,3.3-10.2,3.3
		c-4.3,0-7.9-1-10.7-2.9c-2.9-1.9-5-4.8-6.5-8.7c-1.4-3.9-2.1-8.6-2.1-14.2c0-5.7,0.8-10.4,2.3-14.2c1.5-3.8,3.8-6.7,6.6-8.6
		c2.9-1.9,6.3-2.9,10.2-2.9c4,0,7.3,1,10,2.9c2.6,1.9,4.5,5.5,5.7,10.7l19-7.7c-1.4-5.3-3.8-9.6-7.2-12.9c-3.4-3.3-7.5-5.8-12.3-7.5
		c-4.9-1.6-10.2-2.5-16-2.5c-8.3,0-15.5,1.7-21.6,5.1c-6.1,3.4-10.8,8.3-14.1,14.6s-4.9,14-4.9,23c0,9,1.6,16.6,4.9,23
		c3.3,6.4,8,11.2,14.1,14.6s13.4,5.1,21.7,5.1c5.9,0,11.2-0.9,16.1-2.6C330.6,455.5,334.8,452.8,338.3,449z"/>
	<path class="st0" d="M430.8,440c3.3-6.4,4.9-14,4.9-23s-1.6-16.6-4.9-23c-3.3-6.4-7.9-11.2-14-14.6s-13.3-5.1-21.7-5.1
		s-15.6,1.7-21.7,5.1c-6.1,3.4-10.8,8.3-14.1,14.6s-4.9,14-4.9,23c0,9,1.6,16.6,4.9,23c3.3,6.4,8,11.2,14.1,14.6s13.4,5.1,21.7,5.1
		s15.6-1.7,21.7-5.1C422.9,451.3,427.6,446.4,430.8,440z M411.5,431.3c-1.4,3.8-3.5,6.7-6.2,8.7c-2.7,1.9-6.1,2.9-10.1,2.9
		c-4,0-7.4-1-10.2-2.9c-2.8-1.9-4.9-4.8-6.3-8.7c-1.4-3.9-2.1-8.6-2.1-14.2c0-5.7,0.7-10.4,2.1-14.2c1.4-3.8,3.5-6.7,6.3-8.6
		s6.2-2.9,10.2-2.9s7.4,1,10.1,2.9s4.8,4.8,6.2,8.6c1.4,3.8,2.1,8.6,2.1,14.2C413.6,422.7,412.9,427.4,411.5,431.3z"/>
	<polygon class="st0" points="513.7,441.8 472.1,441.8 472.1,375.7 450.5,375.7 450.5,458.5 513.7,458.5 	"/>
	<polygon class="st0" points="592.3,441.8 547.7,441.8 547.7,424.9 581.9,424.9 581.9,409.2 547.7,409.2 547.7,392.4 590.7,392.4 
		590.7,375.7 526.1,375.7 526.1,458.5 592.3,458.5 	"/>
	<polygon class="st0" points="680,458.5 680,375.7 661,375.7 661,417.5 661.5,432.8 661.3,432.8 655,420.5 629.3,375.7 605.3,375.7 
		605.3,458.5 624.4,458.5 624.4,416.7 623.9,401.4 624,401.4 630.3,413.7 656.1,458.5 	"/>
	<path class="st0" d="M763.3,386.4c-6.9-7.2-16.8-10.8-29.8-10.8h-35.2v82.9h35.2c13,0,22.9-3.6,29.8-10.8
		c6.9-7.2,10.4-17.4,10.4-30.6C773.7,403.8,770.2,393.7,763.3,386.4z M746.8,435.9c-3.2,4.2-8.3,6.3-15.4,6.3H720V392h11.4
		c7,0,12.2,2.1,15.4,6.3c3.2,4.2,4.8,10.5,4.8,18.8C751.6,425.4,750,431.6,746.8,435.9z"/>
</g>
</svg>
