<?xml version="1.0" encoding="utf-8"?>
<!-- Generator: Adobe Illustrator 26.3.1, SVG Export Plug-In . SVG Version: 6.00 Build 0)  -->
<svg version="1.1" id="Layer_1" xmlns="http://www.w3.org/2000/svg" xmlns:xlink="http://www.w3.org/1999/xlink" x="0px" y="0px"
	 viewBox="0 0 850.4 850.4" style="enable-background:new 0 0 850.4 850.4;" xml:space="preserve">
<style type="text/css">
	.st0{fill:#FFFFFF;}
</style>
<g>
	<path class="st0" d="M274.9,675.7c2.9-3.1,5-7,6.3-11.7l-16.1-4.5c-0.8,3.8-2.4,6.6-4.7,8.4s-5.1,2.7-8.4,2.7
		c-3.5,0-6.4-0.8-8.8-2.4s-4.1-4-5.3-7.1s-1.8-7-1.8-11.7c0-4.7,0.6-8.6,1.9-11.7c1.3-3.1,3.1-5.5,5.5-7.1s5.2-2.4,8.4-2.4
		c3.3,0,6,0.8,8.2,2.4c2.2,1.6,3.7,4.5,4.7,8.8l15.6-6.3c-1.2-4.3-3.1-7.9-5.9-10.6s-6.1-4.8-10.1-6.1c-4-1.3-8.3-2-13.1-2
		c-6.8,0-12.7,1.4-17.7,4.2c-5,2.8-8.9,6.8-11.5,12c-2.7,5.2-4,11.5-4,18.9c0,7.3,1.3,13.6,4,18.9s6.5,9.2,11.5,12
		c5,2.8,11,4.2,17.8,4.2c4.8,0,9.2-0.7,13.2-2.1S272,678.7,274.9,675.7z"/>
	<path class="st0" d="M339.4,618.6c-5-2.8-10.9-4.2-17.8-4.2s-12.8,1.4-17.8,4.2c-5,2.8-8.9,6.8-11.5,12c-2.7,5.2-4,11.5-4,18.9
		c0,7.3,1.3,13.6,4,18.9s6.5,9.2,11.5,12c5,2.8,11,4.2,17.8,4.2c6.9,0,12.8-1.4,17.8-4.2c5-2.8,8.8-6.8,11.5-12
		c2.7-5.2,4-11.5,4-18.9s-1.3-13.6-4-18.9C348.2,625.4,344.4,621.4,339.4,618.6z M335,661.1c-1.2,3.2-2.9,5.5-5.1,7.1
		c-2.2,1.6-5,2.4-8.3,2.4s-6.1-0.8-8.4-2.4c-2.3-1.6-4-4-5.2-7.1c-1.2-3.2-1.8-7-1.8-11.7c0-4.7,0.6-8.6,1.8-11.7
		c1.2-3.1,2.9-5.5,5.2-7.1c2.3-1.6,5-2.4,8.4-2.4c3.3,0,6.1,0.8,8.3,2.4c2.2,1.6,3.9,3.9,5.1,7.1c1.2,3.1,1.8,7,1.8,11.7
		C336.8,654.1,336.2,657.9,335,661.1z"/>
	<polygon class="st0" points="367.1,615.4 367.1,683.5 418.9,683.5 418.9,669.8 384.8,669.8 384.8,615.4 	"/>
	<polygon class="st0" points="482.1,629.2 482.1,615.4 429.1,615.4 429.1,683.5 483.4,683.5 483.4,669.8 446.9,669.8 446.9,655.8 
		474.9,655.8 474.9,643 446.9,643 446.9,629.2 	"/>
	<polygon class="st0" points="555.5,615.4 539.8,615.4 539.8,649.8 540.2,662.3 540.1,662.3 535,652.2 513.8,615.4 494.2,615.4 
		494.2,683.5 509.8,683.5 509.8,649.1 509.4,636.6 509.5,636.6 514.7,646.7 535.8,683.5 555.5,683.5 	"/>
	<path class="st0" d="M599.4,615.4h-28.9v68h28.9c10.7,0,18.8-3,24.5-8.9s8.5-14.3,8.5-25.2c0-10.9-2.8-19.2-8.5-25.2
		C618.2,618.4,610.1,615.4,599.4,615.4z M610.3,664.9c-2.7,3.5-6.9,5.2-12.6,5.2h-9.4v-41.2h9.4c5.8,0,10,1.7,12.6,5.2
		c2.7,3.5,4,8.6,4,15.4C614.3,656.3,612.9,661.4,610.3,664.9z"/>
	<path class="st0" d="M434.3,101.2v76.3c-6,0.7-12,1.8-18.1,3.3v-79.6L218,216.6V446l65.9-38.3c1.9,2.5,4,5,6.2,7.3H290l0.9,0.9
		l5.5,5.5L227,461.7L425.2,576l198.2-114.3l-93-54.1c3.9-4.8,7.6-9.6,11-14.6l91,52.9V216L434.3,101.2z M338.8,247
		c34-34,75.1-52.6,109-52.6c18.7,0,35.1,5.7,47,17.5c33.3,33.3,17.6,103.3-35.1,156C407,420.6,337,436.3,303.7,403
		C270.4,369.7,286.1,299.7,338.8,247z M552.8,323.9c-6.3,30.2-24,61.1-50,87.1s-56.9,43.8-87.1,50c-28.8,6-53.2,0.7-68.9-15
		l-8.6-8.6c4,0.5,8,0.7,12.1,0.7c39,0,84.8-20.2,122.2-57.5c41.3-41.3,61.5-93,56.8-134.3l8.6,8.6
		C553.5,270.7,558.8,295.1,552.8,323.9z"/>
	<polygon class="st0" points="218,456.5 218,456.5 218,456.5 	"/>
	<path class="st0" d="M232.8,734.5L232.8,734.5c1.5-0.3,2.7-1.1,3.5-2.2c0.8-1.2,1.2-2.4,1.2-3.8c0-2.4-0.8-4.3-2.3-5.6
		c-1.5-1.4-3.9-2.1-7.2-2.1h-10v28h9.9c3.3,0,5.9-0.7,7.6-2.1c1.8-1.4,2.7-3.3,2.7-5.7c0-1.5-0.5-2.9-1.5-4.1
		C235.8,735.6,234.5,734.8,232.8,734.5z M221.4,723.9h6.6c4,0,5.9,1.5,5.9,4.5c0,3.1-2,4.6-5.9,4.6h-6.6V723.9z M233.2,744.3
		c-1,0.8-2.5,1.2-4.5,1.2h-7.3v-9.3h7.3c2,0,3.5,0.4,4.5,1.2c1,0.8,1.5,2,1.5,3.5C234.7,742.4,234.2,743.5,233.2,744.3z"/>
	<rect x="245" y="727.5" class="st0" width="3.4" height="21.2"/>
	<path class="st0" d="M246.7,718.4c-0.8,0-1.4,0.2-1.8,0.7c-0.5,0.5-0.7,1.1-0.7,1.8s0.2,1.4,0.7,1.8c0.5,0.5,1.1,0.7,1.8,0.7
		c0.8,0,1.4-0.2,1.9-0.7c0.5-0.5,0.7-1.1,0.7-1.8c0-0.8-0.2-1.4-0.7-1.8C248.1,718.6,247.5,718.4,246.7,718.4z"/>
	<path class="st0" d="M266.6,745.6c-0.6,0.3-1.3,0.4-2.1,0.4c-0.9,0-1.7-0.2-2.3-0.8c-0.6-0.5-0.9-1.3-0.9-2.3v-12.4h7.7v-2.9h-7.7
		v-6l-3.4,0.9v5.1h-4.2v2.9h4.2v13c0,1.4,0.3,2.5,0.9,3.3c0.5,0.8,1.3,1.4,2.2,1.8c0.9,0.4,1.9,0.6,3,0.6c1.2,0,2.2-0.2,3.1-0.5
		c0.9-0.3,1.7-0.8,2.3-1.4l-1.2-2.8C267.8,744.9,267.2,745.3,266.6,745.6z"/>
	<path class="st0" d="M287.7,744.2c-0.5,0.7-1.2,1.2-2,1.5c-0.8,0.3-1.8,0.5-2.9,0.5c-1.4,0-2.6-0.3-3.7-1c-1-0.6-1.8-1.6-2.3-2.8
		c-0.5-1.2-0.8-2.7-0.8-4.3c0-1.7,0.3-3.2,0.8-4.3c0.5-1.2,1.3-2.1,2.3-2.8c1-0.6,2.2-1,3.7-1c1.5,0,2.7,0.4,3.6,1.1
		c0.9,0.7,1.6,1.8,2.1,3.1l3.2-1.5c-0.5-1.2-1.2-2.2-2-3c-0.8-0.8-1.8-1.5-2.9-2s-2.4-0.7-3.9-0.7c-2,0-3.8,0.4-5.3,1.3
		c-1.6,0.9-2.8,2.1-3.6,3.8c-0.9,1.7-1.3,3.6-1.3,5.9s0.4,4.3,1.3,5.9c0.9,1.7,2.1,2.9,3.6,3.8c1.5,0.9,3.3,1.3,5.3,1.3
		c1.5,0,2.8-0.2,4-0.7c1.2-0.5,2.2-1.2,3-2.1s1.5-2,2-3.3l-3.1-1.1C288.5,742.8,288.2,743.6,287.7,744.2z"/>
	<path class="st0" d="M312,728.4c-1.5-0.9-3.3-1.3-5.3-1.3c-2,0-3.8,0.4-5.3,1.3c-1.6,0.9-2.8,2.1-3.7,3.8c-0.9,1.7-1.3,3.6-1.3,5.9
		s0.4,4.3,1.3,5.9c0.9,1.7,2.1,2.9,3.7,3.8c1.5,0.9,3.3,1.3,5.3,1.3c2,0,3.8-0.4,5.3-1.3c1.5-0.9,2.8-2.1,3.6-3.8
		c0.9-1.7,1.3-3.6,1.3-5.9s-0.4-4.3-1.3-5.9C314.7,730.6,313.5,729.3,312,728.4z M312.7,742.5c-0.5,1.2-1.3,2.2-2.3,2.8
		c-1,0.7-2.2,1-3.7,1s-2.7-0.3-3.7-1c-1-0.7-1.8-1.6-2.4-2.8c-0.5-1.2-0.8-2.7-0.8-4.3c0-1.7,0.3-3.2,0.8-4.3
		c0.5-1.2,1.3-2.1,2.4-2.8c1-0.7,2.2-1,3.7-1s2.7,0.3,3.7,1c1,0.7,1.8,1.6,2.3,2.8s0.8,2.7,0.8,4.3
		C313.5,739.8,313.2,741.3,312.7,742.5z"/>
	<path class="st0" d="M325,718.4c-0.8,0-1.4,0.2-1.8,0.7c-0.5,0.5-0.7,1.1-0.7,1.8s0.2,1.4,0.7,1.8c0.5,0.5,1.1,0.7,1.8,0.7
		c0.8,0,1.4-0.2,1.9-0.7c0.5-0.5,0.7-1.1,0.7-1.8c0-0.8-0.2-1.4-0.7-1.8C326.4,718.6,325.8,718.4,325,718.4z"/>
	<rect x="323.3" y="727.5" class="st0" width="3.4" height="21.2"/>
	<path class="st0" d="M349,728c-1.2-0.6-2.6-0.9-4.2-0.9c-1.1,0-2.1,0.2-3.1,0.5c-1,0.3-1.9,0.8-2.7,1.5c-0.5,0.5-1,1.1-1.4,1.8
		l-0.2-3.4h-3v21.2h3.4v-11.3c0-1.8,0.3-3.2,1-4.3c0.7-1.1,1.5-1.8,2.5-2.3c1-0.5,2-0.7,3-0.7c1.5,0,2.7,0.5,3.7,1.4
		s1.5,2.5,1.5,4.9v12.4h3.4v-13.6c0-1.8-0.4-3.3-1.1-4.5C351.3,729.5,350.3,728.6,349,728z"/>
	<polygon class="st0" points="361.3,748.8 364.7,748.8 364.7,736.2 377.3,736.2 377.3,733 364.7,733 364.7,723.9 380.9,723.9 
		380.9,720.8 361.3,720.8 	"/>
	<path class="st0" d="M388.2,718.4c-0.8,0-1.4,0.2-1.9,0.7c-0.5,0.5-0.7,1.1-0.7,1.8s0.2,1.4,0.7,1.8c0.5,0.5,1.1,0.7,1.9,0.7
		c0.8,0,1.4-0.2,1.8-0.7c0.5-0.5,0.7-1.1,0.7-1.8c0-0.8-0.2-1.4-0.7-1.8C389.6,718.6,389,718.4,388.2,718.4z"/>
	<rect x="386.5" y="727.5" class="st0" width="3.4" height="21.2"/>
	<path class="st0" d="M423,737.3l-5.3-1.1c-1.2-0.2-2-0.6-2.4-1.1c-0.4-0.5-0.6-1.1-0.6-1.7s0.2-1.2,0.6-1.7
		c0.4-0.5,0.9-0.9,1.7-1.2c0.7-0.3,1.6-0.4,2.6-0.4c1.2,0,2.3,0.3,3.3,0.9s1.9,1.5,2.3,2.7l2.8-1.9c-0.7-1.5-1.8-2.7-3.2-3.5
		s-3.2-1.2-5.3-1.2c-1.7,0-3.1,0.3-4.4,0.9c-1.2,0.6-2.2,1.3-2.8,2.3c-0.7,1-1,2-1,3.2c0,1.5,0.5,2.7,1.3,3.7c0.9,1,2.4,1.7,4.4,2.1
		l5.1,1.1c1.1,0.2,1.8,0.6,2.2,1.1c0.4,0.5,0.6,1,0.6,1.6c0,0.9-0.4,1.7-1.3,2.3s-2,0.9-3.5,0.9c-1.7,0-3.2-0.4-4.4-1.1
		s-2.1-1.8-2.7-3l-2.9,2.1c0.9,1.6,2.3,2.9,4,3.7c1.7,0.9,3.6,1.3,5.7,1.3c1.7,0,3.1-0.3,4.4-0.8c1.3-0.5,2.3-1.3,3-2.3
		c0.7-1,1.1-2.2,1.1-3.5c0-1.3-0.4-2.4-1.2-3.3C426.4,738.3,425,737.7,423,737.3z"/>
	<path class="st0" d="M444.9,745.6c-0.6,0.3-1.3,0.4-2.1,0.4c-0.9,0-1.7-0.2-2.3-0.8c-0.6-0.5-0.9-1.3-0.9-2.3v-12.4h7.7v-2.9h-7.7
		v-6l-3.4,0.9v5.1H432v2.9h4.2v13c0,1.4,0.3,2.5,0.9,3.3c0.5,0.8,1.3,1.4,2.2,1.8c0.9,0.4,1.9,0.6,3,0.6c1.2,0,2.2-0.2,3.1-0.5
		s1.7-0.8,2.3-1.4l-1.2-2.8C446,744.9,445.5,745.3,444.9,745.6z"/>
	<path class="st0" d="M468.2,744.6v-10.3c0-1.7-0.4-3-1.1-4.1c-0.7-1.1-1.7-1.8-3-2.4c-1.2-0.5-2.6-0.8-4.2-0.8
		c-2.3,0-4.2,0.5-5.7,1.5c-1.5,1-2.6,2.3-3.1,3.8l2.8,1.7c0.5-1.4,1.2-2.4,2.2-3.1c1-0.6,2.3-1,3.7-1c1.5,0,2.8,0.4,3.6,1.3
		c0.9,0.9,1.3,2.1,1.3,3.7v0.8l-7.7,1.5c-1.9,0.4-3.4,1.1-4.4,2.1c-1.1,1-1.6,2.3-1.6,3.9c0,1.3,0.3,2.3,1,3.2
		c0.6,0.9,1.5,1.5,2.6,1.9c1.1,0.4,2.2,0.6,3.5,0.6c1,0,2-0.2,3-0.5c1-0.3,1.9-0.8,2.8-1.5c0.4-0.3,0.7-0.7,1-1.2
		c0.1,0.4,0.2,0.8,0.4,1.2c0.4,0.6,0.9,1.1,1.5,1.4c0.7,0.3,1.4,0.5,2.2,0.5c0.9,0,1.6-0.1,2.2-0.4l0.2-2.7c-0.5,0.1-1,0.2-1.6,0.2
		C468.7,746.2,468.2,745.7,468.2,744.6z M464.8,740.9c0,0.9-0.2,1.7-0.5,2.3c-0.3,0.7-0.8,1.2-1.4,1.7c-0.6,0.4-1.3,0.8-2,1
		c-0.8,0.2-1.5,0.3-2.3,0.3c-1.3,0-2.3-0.3-3-0.8s-1-1.3-1-2.1c0-0.9,0.3-1.6,1-2.1s1.7-0.9,3.1-1.2l6.2-1.3V740.9z"/>
	<path class="st0" d="M486.4,727.1c-1.6,0-3,0.3-4.2,1c-1.2,0.7-2,1.6-2.6,2.9l-0.5-3.5h-2.8v21.2h3.4v-11.5c0-1.6,0.3-2.9,0.9-3.9
		c0.6-1,1.3-1.8,2.2-2.3s1.8-0.8,2.6-0.8c0.7,0,1.2,0,1.6,0.1s0.7,0.1,1,0.2l0.6-3.1c-0.3-0.2-0.7-0.3-1.1-0.3
		S486.8,727.1,486.4,727.1z"/>
	<path class="st0" d="M502.7,745.6c-0.6,0.3-1.3,0.4-2.1,0.4c-0.9,0-1.7-0.2-2.3-0.8c-0.6-0.5-0.9-1.3-0.9-2.3v-12.4h7.7v-2.9h-7.7
		v-6l-3.4,0.9v5.1h-4.2v2.9h4.2v13c0,1.4,0.3,2.5,0.9,3.3c0.5,0.8,1.3,1.4,2.2,1.8c0.9,0.4,1.9,0.6,3,0.6c1.2,0,2.2-0.2,3.1-0.5
		s1.7-0.8,2.3-1.4l-1.2-2.8C503.9,744.9,503.3,745.3,502.7,745.6z"/>
	<path class="st0" d="M520.9,737.3l-5.3-1.1c-1.2-0.2-2-0.6-2.4-1.1c-0.4-0.5-0.6-1.1-0.6-1.7s0.2-1.2,0.6-1.7
		c0.4-0.5,0.9-0.9,1.7-1.2c0.7-0.3,1.6-0.4,2.6-0.4c1.2,0,2.3,0.3,3.3,0.9c1.1,0.6,1.8,1.5,2.3,2.7l2.8-1.9
		c-0.7-1.5-1.8-2.7-3.2-3.5c-1.4-0.8-3.2-1.2-5.3-1.2c-1.7,0-3.1,0.3-4.3,0.9s-2.2,1.3-2.8,2.3c-0.7,1-1,2-1,3.2
		c0,1.5,0.5,2.7,1.3,3.7c0.9,1,2.4,1.7,4.4,2.1l5.1,1.1c1.1,0.2,1.8,0.6,2.2,1.1s0.6,1,0.6,1.6c0,0.9-0.4,1.7-1.3,2.3
		c-0.8,0.6-2,0.9-3.5,0.9c-1.7,0-3.2-0.4-4.3-1.1c-1.2-0.7-2.1-1.8-2.7-3l-2.9,2.1c0.9,1.6,2.3,2.9,4,3.7c1.7,0.9,3.6,1.3,5.7,1.3
		c1.7,0,3.1-0.3,4.4-0.8c1.3-0.5,2.3-1.3,3-2.3c0.7-1,1.1-2.2,1.1-3.5c0-1.3-0.4-2.4-1.2-3.3C524.3,738.3,522.9,737.7,520.9,737.3z"
		/>
	<path class="st0" d="M561.5,728c-1.2-0.6-2.6-0.9-4.2-0.9c-1.4,0-2.8,0.3-4,0.8c-1.2,0.6-2.2,1.5-2.9,2.8v-12.9H547v31h3.4v-11.2
		c0-1.8,0.3-3.3,1-4.3c0.7-1.1,1.5-1.9,2.5-2.4c1-0.5,2-0.7,3-0.7c1.5,0,2.7,0.5,3.7,1.4s1.5,2.5,1.5,4.9v12.4h3.4v-13.6
		c0-1.8-0.4-3.3-1.1-4.5C563.7,729.5,562.7,728.6,561.5,728z"/>
	<path class="st0" d="M587,728.4c-1.4-0.8-3.1-1.3-5.1-1.3c-2,0-3.7,0.4-5.2,1.3c-1.5,0.9-2.7,2.1-3.6,3.8c-0.9,1.7-1.3,3.6-1.3,5.9
		s0.4,4.3,1.3,5.9c0.9,1.7,2.1,2.9,3.7,3.8s3.4,1.3,5.4,1.3c1.4,0,2.6-0.2,3.8-0.6c1.1-0.4,2.1-0.9,2.9-1.6c0.8-0.7,1.5-1.5,2.1-2.5
		l-2.7-1.6c-0.6,1-1.4,1.8-2.3,2.4c-1,0.6-2.2,0.9-3.8,0.9c-1.4,0-2.7-0.3-3.7-1c-1-0.6-1.8-1.6-2.4-2.8c-0.5-1-0.7-2.1-0.8-3.3h16
		c0.1-0.3,0.1-0.7,0.1-1.1s0-0.8,0-1.3c0-1.8-0.4-3.4-1.1-4.9C589.5,730.4,588.4,729.2,587,728.4z M575.3,736.1
		c0.1-0.8,0.3-1.6,0.7-2.3c0.6-1.2,1.3-2.1,2.3-2.8s2.2-1,3.6-1c1.8,0,3.3,0.5,4.4,1.7c1,1,1.6,2.5,1.7,4.4H575.3z"/>
	<path class="st0" d="M607.8,727.1c-1.6,0-3,0.3-4.2,1c-1.2,0.7-2,1.6-2.6,2.9l-0.5-3.5h-2.8v21.2h3.4v-11.5c0-1.6,0.3-2.9,0.9-3.9
		c0.6-1,1.3-1.8,2.2-2.3c0.9-0.5,1.8-0.8,2.7-0.8c0.7,0,1.2,0,1.6,0.1s0.7,0.1,1,0.2l0.6-3.1c-0.3-0.2-0.7-0.3-1.1-0.3
		C608.5,727.2,608.1,727.1,607.8,727.1z"/>
	<path class="st0" d="M628.1,728.4c-1.4-0.8-3.1-1.3-5.1-1.3c-2,0-3.7,0.4-5.2,1.3s-2.7,2.1-3.6,3.8c-0.9,1.7-1.3,3.6-1.3,5.9
		s0.4,4.3,1.3,5.9c0.9,1.7,2.1,2.9,3.7,3.8s3.4,1.3,5.4,1.3c1.4,0,2.6-0.2,3.8-0.6c1.1-0.4,2.1-0.9,2.9-1.6c0.8-0.7,1.5-1.5,2.1-2.5
		l-2.7-1.6c-0.6,1-1.4,1.8-2.3,2.4c-1,0.6-2.2,0.9-3.8,0.9c-1.4,0-2.7-0.3-3.7-1c-1-0.6-1.8-1.6-2.4-2.8c-0.5-1-0.7-2.1-0.8-3.3h16
		c0.1-0.3,0.1-0.7,0.1-1.1s0-0.8,0-1.3c0-1.8-0.4-3.5-1.1-4.9C630.6,730.4,629.5,729.2,628.1,728.4z M616.4,736.1
		c0.1-0.8,0.3-1.6,0.7-2.3c0.6-1.2,1.3-2.1,2.3-2.8s2.2-1,3.6-1c1.8,0,3.3,0.5,4.4,1.7c1,1,1.6,2.5,1.7,4.4H616.4z"/>
</g>
</svg>
