<?xml version="1.0" encoding="utf-8"?>
<!-- Generator: Adobe Illustrator 26.3.1, SVG Export Plug-In . SVG Version: 6.00 Build 0)  -->
<svg version="1.1" id="Layer_1" xmlns="http://www.w3.org/2000/svg" xmlns:xlink="http://www.w3.org/1999/xlink" x="0px" y="0px"
	 viewBox="0 0 850.4 850.4" style="enable-background:new 0 0 850.4 850.4;" xml:space="preserve">
<style type="text/css">
	.st0{fill:#FFFFFF;}
</style>
<g>
	<path class="st0" d="M154,361.2L154,361.2c-2.1,0.2-4.3,0.6-6.5,1.2v-28.5l-70.9,41.3v82.1l23.6-13.7c0.7,0.9,1.4,1.8,2.2,2.6h0
		l0.3,0.3l2,2L79.8,463l70.9,40.9l70.9-40.9l-33.3-19.3c1.4-1.7,2.7-3.4,4-5.2l32.6,18.9V375L154,333.9V361.2z M191,389
		c5.6,5.6,7.5,14.3,5.4,24.7c-2.2,10.8-8.6,21.9-17.9,31.2c-9.3,9.3-20.4,15.7-31.2,17.9c-10.3,2.1-19.1,0.2-24.7-5.4l-3.1-3.1
		c1.4,0.2,2.9,0.2,4.3,0.2c14,0,30.4-7.2,43.7-20.6c14.8-14.8,22-33.3,20.3-48.1L191,389z M175.6,373.5c11.9,11.9,6.3,37-12.6,55.8
		c-18.9,18.9-43.9,24.5-55.8,12.6c-11.9-11.9-6.3-37,12.6-55.8c12.2-12.2,26.9-18.8,39-18.8C165.5,367.3,171.4,369.3,175.6,373.5z"
		/>
	<path class="st0" d="M338.3,449c3.5-3.7,6.1-8.5,7.7-14.2l-19.6-5.5c-1,4.6-2.9,8-5.7,10.2c-2.8,2.2-6.2,3.3-10.2,3.3
		c-4.3,0-7.9-1-10.7-2.9c-2.9-1.9-5-4.8-6.5-8.7c-1.4-3.9-2.1-8.6-2.1-14.2c0-5.7,0.8-10.4,2.3-14.2c1.5-3.8,3.8-6.7,6.6-8.6
		c2.9-1.9,6.3-2.9,10.2-2.9c4,0,7.3,1,10,2.9c2.6,1.9,4.5,5.5,5.7,10.7l19-7.7c-1.4-5.3-3.8-9.6-7.2-12.9c-3.4-3.3-7.5-5.8-12.3-7.5
		c-4.9-1.6-10.2-2.5-16-2.5c-8.3,0-15.5,1.7-21.6,5.1c-6.1,3.4-10.8,8.3-14.1,14.6s-4.9,14-4.9,23c0,9,1.6,16.6,4.9,23
		c3.3,6.4,8,11.2,14.1,14.6s13.4,5.1,21.7,5.1c5.9,0,11.2-0.9,16.1-2.6C330.6,455.5,334.8,452.8,338.3,449z"/>
	<path class="st0" d="M430.8,440c3.3-6.4,4.9-14,4.9-23s-1.6-16.6-4.9-23c-3.3-6.4-7.9-11.2-14-14.6s-13.3-5.1-21.7-5.1
		s-15.6,1.7-21.7,5.1c-6.1,3.4-10.8,8.3-14.1,14.6s-4.9,14-4.9,23c0,9,1.6,16.6,4.9,23c3.3,6.4,8,11.2,14.1,14.6s13.4,5.1,21.7,5.1
		s15.6-1.7,21.7-5.1C422.9,451.3,427.6,446.4,430.8,440z M411.5,431.3c-1.4,3.8-3.5,6.7-6.2,8.7c-2.7,1.9-6.1,2.9-10.1,2.9
		c-4,0-7.4-1-10.2-2.9c-2.8-1.9-4.9-4.8-6.3-8.7c-1.4-3.9-2.1-8.6-2.1-14.2c0-5.7,0.7-10.4,2.1-14.2c1.4-3.8,3.5-6.7,6.3-8.6
		s6.2-2.9,10.2-2.9s7.4,1,10.1,2.9s4.8,4.8,6.2,8.6c1.4,3.8,2.1,8.6,2.1,14.2C413.6,422.7,412.9,427.4,411.5,431.3z"/>
	<polygon class="st0" points="513.7,441.8 472.1,441.8 472.1,375.7 450.5,375.7 450.5,458.5 513.7,458.5 	"/>
	<polygon class="st0" points="592.3,441.8 547.7,441.8 547.7,424.9 581.9,424.9 581.9,409.2 547.7,409.2 547.7,392.4 590.7,392.4 
		590.7,375.7 526.1,375.7 526.1,458.5 592.3,458.5 	"/>
	<polygon class="st0" points="680,458.5 680,375.7 661,375.7 661,417.5 661.5,432.8 661.3,432.8 655,420.5 629.3,375.7 605.3,375.7 
		605.3,458.5 624.4,458.5 624.4,416.7 623.9,401.4 624,401.4 630.3,413.7 656.1,458.5 	"/>
	<path class="st0" d="M763.3,386.4c-6.9-7.2-16.8-10.8-29.8-10.8h-35.2v82.9h35.2c13,0,22.9-3.6,29.8-10.8
		c6.9-7.2,10.4-17.4,10.4-30.6C773.7,403.8,770.2,393.7,763.3,386.4z M746.8,435.9c-3.2,4.2-8.3,6.3-15.4,6.3H720V392h11.4
		c7,0,12.2,2.1,15.4,6.3c3.2,4.2,4.8,10.5,4.8,18.8C751.6,425.4,750,431.6,746.8,435.9z"/>
	<path class="st0" d="M314.3,501.6L314.3,501.6c1.6-0.4,2.9-1.2,3.7-2.4c0.9-1.2,1.3-2.6,1.3-4.1c0-2.5-0.8-4.6-2.5-6.1
		c-1.6-1.5-4.2-2.2-7.8-2.2h-10.7v30.1h10.7c3.6,0,6.3-0.8,8.2-2.3c1.9-1.5,2.9-3.6,2.9-6.1c0-1.6-0.5-3.1-1.6-4.4
		C317.5,502.7,316.1,501.9,314.3,501.6z M302,490.2h7.1c4.3,0,6.4,1.6,6.4,4.9c0,3.3-2.1,4.9-6.4,4.9H302V490.2z M314.8,512.1
		c-1,0.9-2.7,1.3-4.8,1.3h-7.9v-10h7.9c2.2,0,3.8,0.4,4.8,1.3s1.6,2.1,1.6,3.7C316.3,510,315.8,511.2,314.8,512.1z"/>
	<rect x="327.5" y="494" class="st0" width="3.7" height="22.8"/>
	<path class="st0" d="M329.3,484.2c-0.8,0-1.5,0.2-2,0.8c-0.5,0.5-0.8,1.2-0.8,2s0.2,1.5,0.8,2c0.5,0.5,1.2,0.8,2,0.8
		c0.8,0,1.5-0.2,2-0.8c0.5-0.5,0.8-1.2,0.8-2c0-0.8-0.2-1.5-0.8-2C330.8,484.4,330.2,484.2,329.3,484.2z"/>
	<path class="st0" d="M350.7,513.4c-0.6,0.3-1.4,0.5-2.3,0.5c-1,0-1.8-0.3-2.5-0.8c-0.6-0.5-1-1.4-1-2.5v-13.4h8.3V494H345v-6.5
		l-3.7,1v5.5h-4.6v3.1h4.6v14c0,1.5,0.3,2.6,0.9,3.5c0.6,0.9,1.4,1.5,2.4,2c1,0.4,2.1,0.6,3.2,0.6c1.2,0,2.3-0.2,3.3-0.5
		c1-0.4,1.8-0.9,2.5-1.5l-1.3-3.1C352,512.7,351.4,513.1,350.7,513.4z"/>
	<path class="st0" d="M373.4,512c-0.6,0.7-1.3,1.2-2.1,1.6s-1.9,0.5-3.1,0.5c-1.5,0-2.8-0.3-3.9-1c-1.1-0.7-1.9-1.7-2.5-3
		s-0.9-2.9-0.9-4.7c0-1.8,0.3-3.4,0.9-4.7c0.6-1.3,1.4-2.3,2.5-3c1.1-0.7,2.4-1,3.9-1c1.6,0,2.9,0.4,3.9,1.2c1,0.8,1.7,1.9,2.2,3.4
		l3.5-1.6c-0.5-1.2-1.3-2.3-2.1-3.2c-0.9-0.9-1.9-1.6-3.1-2.1c-1.2-0.5-2.6-0.7-4.2-0.7c-2.1,0-4,0.5-5.7,1.4
		c-1.7,0.9-3,2.3-3.9,4.1c-0.9,1.8-1.4,3.9-1.4,6.4c0,2.5,0.5,4.6,1.4,6.4c0.9,1.8,2.2,3.1,3.9,4.1c1.7,0.9,3.6,1.4,5.7,1.4
		c1.6,0,3-0.3,4.3-0.8c1.3-0.5,2.3-1.3,3.2-2.3c0.9-1,1.6-2.2,2.1-3.6l-3.4-1.2C374.3,510.4,373.9,511.3,373.4,512z"/>
	<path class="st0" d="M399.5,495c-1.7-0.9-3.6-1.4-5.7-1.4c-2.1,0-4,0.5-5.7,1.4c-1.7,0.9-3,2.3-3.9,4.1c-0.9,1.8-1.4,3.9-1.4,6.4
		c0,2.5,0.5,4.6,1.4,6.4c0.9,1.8,2.2,3.1,3.9,4.1c1.7,0.9,3.6,1.4,5.7,1.4c2.2,0,4.1-0.5,5.7-1.4c1.7-0.9,3-2.3,3.9-4.1
		c0.9-1.8,1.4-3.9,1.4-6.4c0-2.5-0.5-4.6-1.4-6.4C402.5,497.3,401.2,495.9,399.5,495z M400.3,510.1c-0.6,1.3-1.4,2.3-2.5,3
		c-1.1,0.7-2.4,1-4,1s-2.9-0.3-4-1c-1.1-0.7-1.9-1.7-2.5-3c-0.6-1.3-0.9-2.9-0.9-4.7c0-1.8,0.3-3.4,0.9-4.7s1.4-2.3,2.5-3
		c1.1-0.7,2.4-1,4-1s2.9,0.3,4,1c1.1,0.7,1.9,1.7,2.5,3c0.6,1.3,0.9,2.8,0.9,4.7C401.2,507.2,400.9,508.8,400.3,510.1z"/>
	<path class="st0" d="M413.5,484.2c-0.8,0-1.5,0.2-2,0.8c-0.5,0.5-0.8,1.2-0.8,2s0.2,1.5,0.8,2c0.5,0.5,1.2,0.8,2,0.8
		c0.8,0,1.5-0.2,2-0.8c0.5-0.5,0.8-1.2,0.8-2c0-0.8-0.2-1.5-0.8-2C415,484.4,414.4,484.2,413.5,484.2z"/>
	<rect x="411.7" y="494" class="st0" width="3.6" height="22.8"/>
	<path class="st0" d="M439.4,494.5c-1.3-0.6-2.8-0.9-4.5-0.9c-1.2,0-2.3,0.2-3.3,0.5c-1.1,0.3-2,0.9-2.9,1.6c-0.6,0.5-1,1.2-1.5,2
		l-0.2-3.6h-3.2v22.8h3.7v-12.1c0-2,0.4-3.5,1.1-4.7c0.7-1.2,1.6-2,2.7-2.5c1.1-0.5,2.2-0.8,3.3-0.8c1.6,0,2.9,0.5,4,1.5
		c1.1,1,1.6,2.8,1.6,5.3v13.3h3.6v-14.6c0-2-0.4-3.6-1.2-4.9C441.8,496.1,440.8,495.1,439.4,494.5z"/>
	<polygon class="st0" points="452.6,516.8 456.2,516.8 456.2,503.3 469.8,503.3 469.8,499.9 456.2,499.9 456.2,490.2 473.7,490.2 
		473.7,486.7 452.6,486.7 	"/>
	<path class="st0" d="M481.5,484.2c-0.8,0-1.5,0.2-2,0.8c-0.5,0.5-0.8,1.2-0.8,2s0.2,1.5,0.8,2c0.5,0.5,1.2,0.8,2,0.8
		c0.8,0,1.5-0.2,2-0.8c0.5-0.5,0.8-1.2,0.8-2c0-0.8-0.2-1.5-0.8-2S482.4,484.2,481.5,484.2z"/>
	<rect x="479.7" y="494" class="st0" width="3.6" height="22.8"/>
	<path class="st0" d="M519,504.5l-5.7-1.2c-1.2-0.2-2.1-0.7-2.6-1.2c-0.5-0.6-0.7-1.2-0.7-1.8c0-0.7,0.2-1.3,0.6-1.8
		c0.4-0.5,1-1,1.8-1.3c0.8-0.3,1.7-0.5,2.8-0.5c1.2,0,2.5,0.3,3.6,0.9c1.2,0.6,2,1.6,2.5,3l3.1-2c-0.8-1.6-1.9-2.9-3.5-3.7
		s-3.5-1.3-5.7-1.3c-1.8,0-3.3,0.3-4.7,0.9c-1.3,0.6-2.3,1.5-3.1,2.5c-0.7,1-1.1,2.2-1.1,3.4c0,1.6,0.5,2.9,1.4,4
		c1,1.1,2.5,1.8,4.8,2.3l5.5,1.1c1.2,0.2,1.9,0.6,2.3,1.2c0.4,0.5,0.6,1.1,0.6,1.8c0,1-0.5,1.8-1.4,2.4c-0.9,0.6-2.2,0.9-3.8,0.9
		c-1.8,0-3.4-0.4-4.7-1.2c-1.3-0.8-2.3-1.9-2.9-3.3l-3.1,2.2c1,1.7,2.4,3.1,4.3,4c1.9,0.9,3.9,1.4,6.1,1.4c1.8,0,3.4-0.3,4.8-0.9
		s2.4-1.4,3.2-2.5s1.1-2.3,1.1-3.8c0-1.4-0.4-2.6-1.3-3.6C522.6,505.7,521.1,505,519,504.5z"/>
	<path class="st0" d="M542.6,513.4c-0.6,0.3-1.4,0.5-2.3,0.5c-1,0-1.8-0.3-2.5-0.8c-0.6-0.5-1-1.4-1-2.5v-13.4h8.3V494h-8.3v-6.5
		l-3.7,1v5.5h-4.6v3.1h4.6v14c0,1.5,0.3,2.6,0.9,3.5c0.6,0.9,1.4,1.5,2.4,2c1,0.4,2.1,0.6,3.2,0.6c1.2,0,2.3-0.2,3.3-0.5
		s1.8-0.9,2.5-1.5l-1.3-3.1C543.8,512.7,543.2,513.1,542.6,513.4z"/>
	<path class="st0" d="M567.6,512.4v-11c0-1.8-0.4-3.3-1.2-4.4c-0.8-1.1-1.8-2-3.2-2.6c-1.3-0.6-2.8-0.8-4.5-0.8
		c-2.4,0-4.5,0.5-6.1,1.6c-1.6,1-2.8,2.4-3.4,4.1l3,1.8c0.5-1.5,1.3-2.6,2.4-3.3s2.4-1,4-1c1.7,0,3,0.5,3.9,1.4
		c0.9,0.9,1.4,2.2,1.4,4v0.9l-8.3,1.6c-2,0.4-3.6,1.1-4.8,2.3c-1.1,1.1-1.7,2.5-1.7,4.2c0,1.4,0.3,2.5,1,3.5
		c0.7,0.9,1.6,1.6,2.8,2.1s2.4,0.7,3.7,0.7c1.1,0,2.1-0.2,3.2-0.5c1.1-0.3,2.1-0.9,3-1.6c0.4-0.4,0.8-0.8,1.1-1.2
		c0.1,0.5,0.2,0.9,0.5,1.2c0.4,0.7,0.9,1.2,1.6,1.5c0.7,0.3,1.5,0.5,2.4,0.5c1,0,1.8-0.2,2.4-0.5l0.2-2.9c-0.5,0.2-1.1,0.2-1.7,0.2
		C568.2,514.1,567.6,513.5,567.6,512.4z M563.4,510.9c-0.4,0.7-0.9,1.3-1.5,1.8c-0.6,0.5-1.4,0.8-2.2,1s-1.7,0.3-2.5,0.3
		c-1.4,0-2.4-0.3-3.2-0.9c-0.8-0.6-1.1-1.4-1.1-2.3c0-1,0.4-1.7,1.1-2.3c0.7-0.5,1.8-1,3.3-1.3l6.6-1.4v2.4h0
		C563.9,509.4,563.7,510.2,563.4,510.9z"/>
	<path class="st0" d="M587.2,493.6c-1.8,0-3.3,0.4-4.5,1c-1.2,0.7-2.2,1.8-2.8,3.2l-0.5-3.7h-3v22.8h3.7v-12.3c0-1.7,0.3-3.1,1-4.2
		s1.4-1.9,2.4-2.5s1.9-0.8,2.8-0.8c0.7,0,1.3,0,1.7,0.1s0.8,0.2,1.1,0.3l0.6-3.3c-0.3-0.2-0.7-0.3-1.2-0.4
		C588,493.6,587.6,493.6,587.2,493.6z"/>
	<path class="st0" d="M604.8,513.4c-0.6,0.3-1.4,0.5-2.3,0.5c-1,0-1.8-0.3-2.5-0.8c-0.6-0.5-1-1.4-1-2.5v-13.4h8.3V494h-8.3v-6.5
		l-3.7,1v5.5h-4.6v3.1h4.6v14c0,1.5,0.3,2.6,0.9,3.5c0.6,0.9,1.4,1.5,2.4,2c1,0.4,2.1,0.6,3.2,0.6c1.2,0,2.3-0.2,3.3-0.5
		s1.8-0.9,2.5-1.5l-1.3-3.1C606,512.7,605.4,513.1,604.8,513.4z"/>
	<path class="st0" d="M624.3,504.5l-5.7-1.2c-1.2-0.2-2.1-0.7-2.6-1.2s-0.7-1.2-0.7-1.8c0-0.7,0.2-1.3,0.6-1.8c0.4-0.5,1-1,1.8-1.3
		c0.8-0.3,1.7-0.5,2.8-0.5c1.2,0,2.5,0.3,3.6,0.9c1.2,0.6,2,1.6,2.5,3l3.1-2c-0.8-1.6-1.9-2.9-3.5-3.7s-3.5-1.3-5.7-1.3
		c-1.8,0-3.3,0.3-4.7,0.9c-1.3,0.6-2.3,1.5-3.1,2.5c-0.7,1-1.1,2.2-1.1,3.4c0,1.6,0.5,2.9,1.4,4c1,1.1,2.5,1.8,4.8,2.3l5.5,1.1
		c1.2,0.2,1.9,0.6,2.3,1.2c0.4,0.5,0.6,1.1,0.6,1.8c0,1-0.5,1.8-1.4,2.4c-0.9,0.6-2.2,0.9-3.8,0.9c-1.8,0-3.4-0.4-4.7-1.2
		c-1.3-0.8-2.3-1.9-2.9-3.3l-3.1,2.2c1,1.7,2.4,3.1,4.3,4c1.9,0.9,3.9,1.4,6.1,1.4c1.8,0,3.4-0.3,4.8-0.9s2.4-1.4,3.2-2.5
		s1.1-2.3,1.1-3.8c0-1.4-0.4-2.6-1.3-3.6C628,505.7,626.5,505,624.3,504.5z"/>
	<path class="st0" d="M668,494.5c-1.3-0.6-2.8-0.9-4.5-0.9c-1.5,0-3,0.3-4.3,0.9c-1.3,0.6-2.4,1.6-3.2,3v-13.9h-3.7v33.3h3.7v-12.1
		c0-2,0.4-3.5,1.1-4.7s1.6-2,2.7-2.5c1.1-0.5,2.2-0.8,3.3-0.8c1.6,0,2.9,0.5,4,1.5c1.1,1,1.6,2.8,1.6,5.3v13.3h3.7v-14.6
		c0-2-0.4-3.6-1.2-4.9C670.4,496.1,669.3,495.1,668,494.5z"/>
	<path class="st0" d="M695.4,494.9c-1.5-0.9-3.3-1.4-5.5-1.4c-2.1,0-4,0.5-5.6,1.4c-1.6,0.9-2.9,2.3-3.9,4.1
		c-0.9,1.8-1.4,3.9-1.4,6.4c0,2.5,0.5,4.6,1.4,6.4c0.9,1.8,2.3,3.1,4,4.1s3.6,1.4,5.8,1.4c1.5,0,2.8-0.2,4-0.6
		c1.2-0.4,2.2-1,3.2-1.8s1.6-1.7,2.2-2.7l-2.9-1.7c-0.6,1.1-1.5,2-2.5,2.6c-1,0.6-2.4,1-4.1,1c-1.5,0-2.9-0.3-4-1s-2-1.7-2.6-3
		c-0.5-1-0.8-2.2-0.9-3.6h17.2c0.1-0.3,0.1-0.7,0.1-1.1c0-0.4,0-0.9,0-1.4c0-2-0.4-3.7-1.2-5.3C698.1,497.1,696.9,495.9,695.4,494.9
		z M682.8,503.2c0.1-0.9,0.4-1.7,0.7-2.5c0.6-1.3,1.4-2.3,2.5-3s2.4-1,3.9-1c2,0,3.5,0.6,4.7,1.8c1.1,1.1,1.7,2.7,1.8,4.7H682.8z"/>
	<path class="st0" d="M717.8,493.6c-1.8,0-3.3,0.4-4.5,1c-1.2,0.7-2.2,1.8-2.8,3.2L710,494h-3v22.8h3.7v-12.3c0-1.7,0.3-3.1,1-4.2
		s1.4-1.9,2.4-2.5s1.9-0.8,2.8-0.8c0.7,0,1.3,0,1.7,0.1s0.8,0.2,1.1,0.3l0.6-3.3c-0.3-0.2-0.7-0.3-1.2-0.4
		C718.6,493.6,718.2,493.6,717.8,493.6z"/>
	<path class="st0" d="M739.7,494.9c-1.5-0.9-3.3-1.4-5.5-1.4c-2.1,0-4,0.5-5.6,1.4c-1.6,0.9-2.9,2.3-3.9,4.1
		c-0.9,1.8-1.4,3.9-1.4,6.4c0,2.5,0.5,4.6,1.4,6.4c0.9,1.8,2.3,3.1,4,4.1s3.6,1.4,5.8,1.4c1.5,0,2.8-0.2,4-0.6
		c1.2-0.4,2.2-1,3.2-1.8s1.6-1.7,2.2-2.7l-2.9-1.7c-0.6,1.1-1.5,2-2.5,2.6c-1,0.6-2.4,1-4.1,1c-1.5,0-2.9-0.3-4-1s-2-1.7-2.6-3
		c-0.5-1-0.8-2.2-0.9-3.6h17.2c0.1-0.3,0.1-0.7,0.1-1.1c0-0.4,0-0.9,0-1.4c0-2-0.4-3.7-1.2-5.3C742.3,497.1,741.2,495.9,739.7,494.9
		z M727,503.2c0.2-0.9,0.4-1.7,0.7-2.5c0.6-1.3,1.4-2.3,2.5-3s2.4-1,3.9-1c2,0,3.5,0.6,4.7,1.8c1.1,1.1,1.7,2.7,1.8,4.7H727z"/>
</g>
</svg>
