<svg width="1089" height="1702" viewBox="0 0 1089 1702" fill="none" xmlns="http://www.w3.org/2000/svg">
<path d="M111.95 1488.24C105.91 1493.02 98.5571 1495.41 89.8911 1495.41C80.6737 1495.41 72.9793 1493.34 66.7556 1489.19C60.5318 1485.04 55.8837 1478.81 52.8112 1470.52C49.7388 1462.22 48.2156 1452.03 48.2156 1439.92C48.2156 1427.82 49.8963 1417.42 53.2314 1409.2C56.5665 1400.98 61.3459 1394.81 67.5697 1390.66C73.7934 1386.51 81.1464 1384.43 89.6285 1384.43C98.1107 1384.43 105.464 1386.51 111.136 1390.66C116.834 1394.81 120.931 1402.48 123.452 1413.66L164.34 1397.14C161.267 1385.77 156.12 1376.48 148.899 1369.26C141.677 1362.03 132.827 1356.68 122.375 1353.16C111.897 1349.64 100.448 1347.88 88.0004 1347.88C70.1432 1347.88 54.597 1351.53 41.4404 1358.83C28.2576 1366.16 18.1473 1376.66 11.1095 1390.37C4.07165 1404.08 0.552734 1420.6 0.552734 1439.92C0.552734 1459.25 4.07165 1475.74 11.1095 1489.45C18.1473 1503.16 28.2576 1513.69 41.4404 1520.99C54.6232 1528.29 70.222 1531.94 88.2892 1531.94C100.921 1531.94 112.475 1530.1 122.953 1526.4C133.431 1522.7 142.439 1516.84 150.028 1508.8C157.617 1500.77 163.106 1490.53 166.546 1478.08L124.319 1466.16C122.165 1476.08 118.042 1483.44 112.003 1488.22L111.95 1488.24Z" fill="white"/>
<path d="M319.33 1358.83C306.252 1351.53 290.68 1347.88 272.639 1347.88C254.598 1347.88 238.973 1351.53 225.79 1358.83C212.607 1366.16 202.497 1376.66 195.459 1390.37C188.421 1404.08 184.902 1420.6 184.902 1439.92C184.902 1459.25 188.421 1475.74 195.459 1489.45C202.497 1503.16 212.607 1513.69 225.79 1520.99C238.973 1528.29 254.572 1531.94 272.639 1531.94C290.706 1531.94 306.252 1528.29 319.33 1520.99C332.408 1513.69 342.466 1503.16 349.53 1489.45C356.568 1475.74 360.086 1459.22 360.086 1439.92C360.086 1420.62 356.568 1404.1 349.53 1390.37C342.492 1376.66 332.434 1366.13 319.33 1358.83ZM307.828 1470.52C304.756 1478.81 300.291 1485.04 294.435 1489.19C288.579 1493.34 281.305 1495.41 272.639 1495.41C263.973 1495.41 256.672 1493.34 250.711 1489.19C244.75 1485.04 240.233 1478.81 237.161 1470.52C234.088 1462.22 232.565 1452.03 232.565 1439.92C232.565 1427.82 234.088 1417.42 237.161 1409.2C240.233 1400.98 244.75 1394.81 250.711 1390.66C256.672 1386.51 263.973 1384.43 272.639 1384.43C281.305 1384.43 288.553 1386.51 294.435 1390.66C300.291 1394.81 304.756 1400.98 307.828 1409.2C310.9 1417.42 312.424 1427.66 312.424 1439.92C312.424 1452.19 310.874 1462.22 307.828 1470.52Z" fill="white"/>
<path d="M438.578 1350.58H392.018V1529.26H528.179V1493.26H438.578V1350.58Z" fill="white"/>
<path d="M601.551 1456.7H675.186V1422.85H601.551V1386.59H694.12V1350.58H554.965V1529.26H697.638V1493.26H601.551V1456.7Z" fill="white"/>
<path d="M845.723 1440.74L846.8 1473.75H846.537L833.013 1447.22L777.498 1350.58H725.791V1529.26H766.941V1439.11L765.865 1406.07H766.127L779.678 1432.6L835.166 1529.26H886.873V1350.58H845.723V1440.74Z" fill="white"/>
<path d="M1002.21 1350.58H926.422V1529.26H1002.21C1030.18 1529.26 1051.61 1521.51 1066.5 1505.99C1081.39 1490.47 1088.84 1468.44 1088.84 1439.95C1088.84 1411.46 1081.41 1389.42 1066.5 1373.9C1051.61 1358.38 1030.18 1350.61 1002.21 1350.61V1350.58ZM1030.78 1480.39C1023.82 1489.5 1012.77 1494.07 997.614 1494.07H972.982V1385.77H997.614C1012.77 1385.77 1023.82 1390.34 1030.78 1399.46C1037.74 1408.57 1041.21 1422.07 1041.21 1439.92C1041.21 1457.78 1037.74 1471.28 1030.78 1480.39Z" fill="white"/>
<path d="M568.491 0.214531V200.635C552.866 202.447 536.952 205.362 520.854 209.406V0.293313L0.527344 303.156V905.6L173.584 804.995C178.521 811.692 183.984 818.047 189.84 824.113H189.682L191.967 826.398L206.489 840.946L24.3194 946.855L544.699 1247.09L1065.08 946.855L820.881 804.864C831.175 792.39 840.813 779.602 849.846 766.603L1088.87 905.573V301.607L568.491 0.214531ZM748.48 813.766C680.203 882.044 598.979 928.709 519.725 945.174C444.121 960.878 379.887 946.96 338.842 905.915L316.337 883.41C326.71 884.591 337.319 885.221 348.138 885.221C450.528 885.221 570.907 832.28 668.964 734.223C777.393 625.794 830.597 490.105 818.15 381.597L840.655 404.102C881.7 445.147 895.645 509.38 879.915 584.985C863.449 664.239 816.758 745.463 748.507 813.74L748.48 813.766ZM317.807 383.067C407.014 293.86 515.103 244.989 604.1 244.989C653.128 244.989 696.353 259.826 727.446 290.919C814.946 378.445 773.638 562.217 635.297 700.584C496.957 838.924 313.212 880.285 225.633 792.732C138.106 705.205 179.441 521.434 317.807 383.067Z" fill="white"/>
<path d="M0.527344 933.121V933.146H0.552578L0.527344 933.121Z" fill="white"/>
<path d="M23.7406 1613.82C34.061 1613.82 42.0967 1616.66 47.8478 1622.36C53.5988 1628.05 56.4875 1636.17 56.4875 1646.75C56.4875 1657.33 53.5988 1665.45 47.8478 1671.15C42.0967 1676.85 34.061 1679.68 23.7406 1679.68H0.5V1613.82H23.7406ZM23.7406 1670.6C30.7259 1670.6 36.0568 1668.52 39.7595 1664.35C43.4623 1660.2 45.3005 1654.31 45.3005 1646.72C45.3005 1639.14 43.4623 1633.28 39.7595 1629.1C36.0568 1624.95 30.7259 1622.85 23.7406 1622.85H11.188V1670.54H23.7668L23.7406 1670.6Z" fill="white"/>
<path d="M92.5163 1628.79C97.3745 1628.79 101.655 1629.81 105.384 1631.89C109.113 1633.96 112.028 1636.93 114.129 1640.82C116.23 1644.7 117.28 1649.35 117.28 1654.73C117.28 1660.12 116.23 1664.77 114.129 1668.65C112.028 1672.54 109.113 1675.53 105.384 1677.58C101.655 1679.63 97.3745 1680.68 92.5163 1680.68C87.6581 1680.68 83.3776 1679.66 79.6486 1677.58C75.9196 1675.51 73.0047 1672.54 70.8776 1668.65C68.7505 1664.77 67.6738 1660.12 67.6738 1654.73C67.6738 1649.35 68.7505 1644.7 70.8776 1640.82C73.0047 1636.93 75.9459 1633.94 79.6486 1631.89C83.3776 1629.81 87.6581 1628.79 92.5163 1628.79ZM92.5163 1637.17C89.5226 1637.17 86.9753 1637.85 84.8745 1639.21C82.7737 1640.58 81.1718 1642.55 80.0426 1645.15C78.9133 1647.75 78.3356 1650.93 78.3356 1654.73C78.3356 1658.54 78.8871 1661.64 80.0426 1664.27C81.1718 1666.89 82.7737 1668.89 84.8745 1670.25C86.9753 1671.62 89.5226 1672.3 92.5163 1672.3C95.51 1672.3 98.031 1671.62 100.106 1670.25C102.154 1668.89 103.756 1666.89 104.885 1664.27C106.014 1661.64 106.592 1658.46 106.592 1654.73C106.592 1651.01 106.014 1647.75 104.885 1645.15C103.756 1642.55 102.154 1640.58 100.106 1639.21C98.031 1637.85 95.51 1637.17 92.5163 1637.17Z" fill="white"/>
<path d="M130.725 1679.68V1629.79H140.206L140.915 1642.76L139.523 1641.37C140.442 1638.51 141.807 1636.12 143.567 1634.22C145.326 1632.33 147.427 1630.94 149.843 1630.08C152.259 1629.21 154.859 1628.79 157.59 1628.79C161.109 1628.79 164.286 1629.47 167.123 1630.84C169.959 1632.2 172.191 1634.25 173.845 1636.98C175.5 1639.71 176.34 1643.18 176.34 1647.36V1679.68H165.652V1650.64C165.652 1645.7 164.628 1642.31 162.606 1640.4C160.584 1638.51 158.036 1637.56 154.964 1637.56C152.758 1637.56 150.631 1638.09 148.583 1639.11C146.508 1640.13 144.801 1641.79 143.436 1644.05C142.07 1646.3 141.387 1649.32 141.387 1653.13V1679.68H130.699H130.725Z" fill="white"/>
<path d="M193.305 1610.22C195.17 1610.22 196.719 1610.67 197.953 1611.56C199.188 1612.46 200.133 1613.69 200.79 1615.27C201.446 1616.84 201.787 1618.6 201.787 1620.6C201.787 1623.06 201.315 1625.43 200.396 1627.74C199.45 1630.02 198.111 1632.12 196.352 1634.02C194.592 1635.91 192.465 1637.46 190.023 1638.66L185.033 1634.38C186.819 1633.73 188.421 1632.86 189.813 1631.78C191.204 1630.73 192.386 1629.52 193.358 1628.19C194.329 1626.85 195.012 1625.48 195.406 1624.09L195.012 1623.88C194.671 1624.09 194.303 1624.25 193.857 1624.38C193.41 1624.51 192.806 1624.59 192.019 1624.59C191.099 1624.59 190.128 1624.33 189.182 1623.83C188.211 1623.33 187.397 1622.57 186.74 1621.57C186.084 1620.57 185.742 1619.28 185.742 1617.68C185.742 1616.21 186.084 1614.92 186.793 1613.79C187.502 1612.67 188.395 1611.77 189.55 1611.14C190.679 1610.51 191.94 1610.2 193.332 1610.2L193.305 1610.22Z" fill="white"/>
<path d="M246.482 1629.79V1638.16H209.061V1629.79H246.482ZM229.307 1615.11V1664.71C229.307 1667.18 229.964 1668.97 231.251 1670.1C232.537 1671.23 234.297 1671.8 236.503 1671.8C238.289 1671.8 239.864 1671.51 241.203 1670.96C242.543 1670.41 243.751 1669.62 244.906 1668.63L247.296 1676.4C245.773 1677.74 243.882 1678.79 241.65 1679.55C239.418 1680.31 236.949 1680.71 234.218 1680.71C231.356 1680.71 228.73 1680.23 226.34 1679.31C223.95 1678.4 222.086 1676.87 220.747 1674.77C219.407 1672.67 218.724 1669.94 218.646 1666.55V1618.15L229.334 1615.16L229.307 1615.11Z" fill="white"/>
<path d="M308.457 1680.68C303.467 1680.68 298.898 1679.71 294.775 1677.79C290.652 1675.87 287.396 1673.14 285.006 1669.6L292.385 1663.22C293.856 1665.95 295.957 1668.13 298.714 1669.76C301.471 1671.38 304.78 1672.2 308.64 1672.2C311.713 1672.2 314.129 1671.67 315.915 1670.6C317.7 1669.52 318.619 1668.05 318.619 1666.11C318.619 1664.84 318.199 1663.72 317.385 1662.77C316.545 1661.8 314.969 1661.06 312.658 1660.54L302.18 1658.33C296.849 1657.26 293.068 1655.55 290.809 1653.19C288.551 1650.82 287.422 1647.8 287.422 1644.15C287.422 1641.42 288.21 1638.9 289.812 1636.56C291.413 1634.23 293.751 1632.36 296.849 1630.92C299.948 1629.5 303.651 1628.76 307.984 1628.76C312.973 1628.76 317.228 1629.66 320.746 1631.42C324.265 1633.17 326.97 1635.7 328.835 1638.95L321.456 1645.15C320.195 1642.5 318.331 1640.5 315.862 1639.21C313.394 1637.93 310.846 1637.27 308.168 1637.27C306.041 1637.27 304.202 1637.53 302.679 1638.06C301.156 1638.58 299.974 1639.32 299.187 1640.27C298.399 1641.18 297.979 1642.29 297.979 1643.55C297.979 1644.89 298.478 1646.04 299.475 1647.04C300.473 1648.04 302.259 1648.8 304.859 1649.32L316.23 1651.71C321.009 1652.63 324.397 1654.24 326.366 1656.44C328.336 1658.67 329.307 1661.38 329.307 1664.58C329.307 1667.79 328.467 1670.6 326.813 1673.01C325.158 1675.45 322.742 1677.32 319.617 1678.66C316.492 1680 312.763 1680.65 308.43 1680.65L308.457 1680.68Z" fill="white"/>
<path d="M364.13 1680.68C359.141 1680.68 354.755 1679.66 350.947 1677.58C347.166 1675.51 344.198 1672.54 342.124 1668.65C340.023 1664.77 338.973 1660.12 338.973 1654.73C338.973 1649.35 340.023 1644.7 342.124 1640.82C344.225 1636.93 347.14 1633.94 350.869 1631.89C354.598 1629.81 358.826 1628.79 363.553 1628.79C368.279 1628.79 372.534 1629.79 375.921 1631.78C379.309 1633.78 381.909 1636.51 383.694 1639.98C385.48 1643.44 386.399 1647.36 386.399 1651.74C386.399 1652.95 386.373 1654.08 386.294 1655.13C386.215 1656.21 386.137 1657.12 386.005 1657.91H345.879V1649.72H381.305L376.026 1651.32C376.026 1646.8 374.897 1643.31 372.639 1640.9C370.38 1638.48 367.282 1637.24 363.369 1637.24C360.506 1637.24 358.012 1637.9 355.884 1639.24C353.757 1640.58 352.129 1642.55 351 1645.18C349.871 1647.8 349.293 1651.01 349.293 1654.81C349.293 1658.62 349.897 1661.69 351.079 1664.29C352.287 1666.89 353.967 1668.86 356.173 1670.18C358.379 1671.51 360.953 1672.17 363.946 1672.17C367.282 1672.17 369.96 1671.54 372.035 1670.28C374.109 1669.02 375.737 1667.26 376.919 1665L385.401 1668.99C384.193 1671.38 382.591 1673.46 380.569 1675.24C378.547 1677 376.131 1678.34 373.348 1679.29C370.564 1680.23 367.492 1680.68 364.157 1680.68H364.13Z" fill="white"/>
<path d="M410.243 1607.33V1665.71C410.243 1668.18 410.663 1669.86 411.529 1670.81C412.396 1671.73 413.814 1672.2 415.81 1672.2C417.018 1672.2 418.016 1672.12 418.856 1671.94C419.697 1671.78 420.721 1671.46 422.007 1670.99L420.799 1678.97C419.67 1679.5 418.384 1679.92 416.913 1680.21C415.442 1680.5 413.972 1680.65 412.527 1680.65C408.063 1680.65 404.781 1679.5 402.706 1677.21C400.631 1674.93 399.555 1671.38 399.555 1666.58V1607.31H410.243V1607.33Z" fill="white"/>
<path d="M441.362 1607.33V1665.71C441.362 1668.18 441.808 1669.86 442.649 1670.81C443.489 1671.75 444.933 1672.2 446.929 1672.2C448.137 1672.2 449.135 1672.12 449.975 1671.94C450.816 1671.78 451.866 1671.46 453.127 1670.99L451.919 1678.97C450.789 1679.5 449.503 1679.92 448.032 1680.21C446.561 1680.5 445.117 1680.65 443.647 1680.65C439.182 1680.65 435.926 1679.5 433.825 1677.21C431.724 1674.93 430.674 1671.38 430.674 1666.58V1607.31H441.362V1607.33Z" fill="white"/>
<path d="M533.378 1629.79L511.53 1685.56C510.059 1689.42 508.483 1692.47 506.776 1694.76C505.069 1697.01 503.126 1698.64 500.947 1699.64C498.741 1700.64 496.193 1701.14 493.252 1701.14C490.862 1701.14 488.657 1700.82 486.608 1700.19C484.586 1699.56 482.8 1698.72 481.277 1697.64L483.877 1689.37C485.138 1690.45 486.477 1691.24 487.921 1691.76C489.339 1692.29 490.889 1692.55 492.569 1692.55C494.355 1692.55 495.983 1692.08 497.401 1691.11C498.819 1690.13 500.106 1688.22 501.235 1685.38L503.441 1680L498.163 1667.63L482.59 1629.81H494.565L505.647 1661.14L508.536 1670.52L511.818 1660.25L522.296 1629.81H533.378V1629.79Z" fill="white"/>
<path d="M563.815 1628.79C568.673 1628.79 572.954 1629.81 576.683 1631.89C580.412 1633.96 583.327 1636.93 585.428 1640.82C587.528 1644.7 588.579 1649.35 588.579 1654.73C588.579 1660.12 587.528 1664.77 585.428 1668.65C583.327 1672.54 580.412 1675.53 576.683 1677.58C572.954 1679.63 568.673 1680.68 563.815 1680.68C558.957 1680.68 554.676 1679.66 550.947 1677.58C547.218 1675.51 544.304 1672.54 542.176 1668.65C540.049 1664.77 538.973 1660.12 538.973 1654.73C538.973 1649.35 540.023 1644.7 542.176 1640.82C544.304 1636.93 547.218 1633.94 550.947 1631.89C554.676 1629.81 558.957 1628.79 563.815 1628.79ZM563.815 1637.17C560.821 1637.17 558.274 1637.85 556.173 1639.21C554.072 1640.58 552.471 1642.55 551.341 1645.15C550.212 1647.75 549.634 1650.93 549.634 1654.73C549.634 1658.54 550.186 1661.64 551.341 1664.27C552.471 1666.89 554.072 1668.89 556.173 1670.25C558.274 1671.62 560.821 1672.3 563.815 1672.3C566.809 1672.3 569.33 1671.62 571.404 1670.25C573.479 1668.89 575.055 1666.89 576.184 1664.27C577.313 1661.64 577.891 1658.46 577.891 1654.73C577.891 1651.01 577.313 1647.75 576.184 1645.15C575.055 1642.55 573.453 1640.58 571.404 1639.21C569.33 1637.85 566.809 1637.17 563.815 1637.17Z" fill="white"/>
<path d="M619.803 1680.68C616.547 1680.68 613.527 1680.08 610.77 1678.89C608.012 1677.69 605.806 1675.77 604.126 1673.12C602.471 1670.46 601.631 1667 601.631 1662.74V1629.81H612.319V1660.04C612.319 1664.56 613.291 1667.68 615.208 1669.36C617.125 1671.07 619.829 1671.91 623.296 1671.91C624.95 1671.91 626.578 1671.62 628.128 1671.07C629.677 1670.52 631.095 1669.6 632.382 1668.36C633.642 1667.13 634.614 1665.55 635.323 1663.64C636.032 1661.72 636.374 1659.44 636.374 1656.86V1629.81H647.062V1679.71H637.687L637.188 1671.62C635.454 1674.75 633.117 1677.06 630.202 1678.5C627.261 1679.97 623.821 1680.71 619.829 1680.71L619.803 1680.68Z" fill="white"/>
<path d="M663.711 1679.68V1629.79H672.797L673.795 1638.77C675.134 1635.51 677.104 1633.04 679.73 1631.34C682.356 1629.63 685.612 1628.79 689.472 1628.79C690.47 1628.79 691.468 1628.87 692.466 1629.03C693.464 1629.18 694.305 1629.45 694.961 1629.79L693.464 1639.16C692.729 1638.9 691.915 1638.69 691.022 1638.51C690.129 1638.32 688.921 1638.27 687.372 1638.27C685.297 1638.27 683.275 1638.82 681.279 1639.92C679.283 1641.03 677.629 1642.65 676.342 1644.86C675.055 1647.07 674.399 1649.85 674.399 1653.24V1679.68H663.711Z" fill="white"/>
<path d="M736.846 1679.68V1613.82H762.791C770.696 1613.82 776.499 1615.42 780.149 1618.6C783.8 1621.78 785.638 1626.22 785.638 1631.86C785.638 1635.33 784.64 1638.4 782.644 1641.11C780.648 1643.81 777.707 1645.52 773.873 1646.25V1646.36C778.127 1647.01 781.436 1648.77 783.8 1651.61C786.163 1654.45 787.345 1657.73 787.345 1661.43C787.345 1667.08 785.27 1671.54 781.147 1674.8C777.024 1678.05 771.037 1679.68 763.185 1679.68H736.846ZM747.324 1642.16H762.003C770.38 1642.16 774.582 1638.93 774.582 1632.47C774.582 1626.01 770.38 1622.78 762.003 1622.78H747.324V1642.13V1642.16ZM747.324 1670.81H763.684C767.886 1670.81 771.011 1669.94 773.112 1668.21C775.212 1666.47 776.263 1664.06 776.263 1660.93C776.263 1657.81 775.212 1655.36 773.112 1653.66C771.011 1651.92 767.859 1651.06 763.684 1651.06H747.324V1670.81Z" fill="white"/>
<path d="M806.804 1621.38C804.467 1621.38 802.707 1620.81 801.473 1619.62C800.239 1618.47 799.635 1616.81 799.635 1614.69C799.635 1612.56 800.239 1610.93 801.473 1609.8C802.707 1608.67 804.493 1608.1 806.804 1608.1C809.115 1608.1 810.822 1608.67 812.056 1609.8C813.29 1610.93 813.894 1612.56 813.894 1614.69C813.894 1616.81 813.29 1618.47 812.056 1619.62C810.822 1620.78 809.089 1621.38 806.804 1621.38ZM812.082 1629.76V1679.66H801.394V1629.76H812.082Z" fill="white"/>
<path d="M860.48 1629.79V1638.16H823.059V1629.79H860.48ZM843.305 1615.11V1664.71C843.305 1667.18 843.962 1668.97 845.249 1670.1C846.535 1671.23 848.295 1671.8 850.501 1671.8C852.287 1671.8 853.862 1671.51 855.201 1670.96C856.541 1670.41 857.775 1669.62 858.904 1668.63L861.294 1676.4C859.771 1677.74 857.88 1678.79 855.648 1679.55C853.416 1680.31 850.947 1680.71 848.216 1680.71C845.354 1680.71 842.728 1680.23 840.338 1679.31C837.948 1678.4 836.084 1676.87 834.744 1674.77C833.405 1672.67 832.722 1669.94 832.644 1666.55V1618.15L843.332 1615.16L843.305 1615.11Z" fill="white"/>
<path d="M892.624 1628.79C896.616 1628.79 900.03 1629.37 902.84 1630.55C905.676 1631.7 908.039 1633.36 909.982 1635.49C911.899 1637.61 913.37 1640.05 914.368 1642.76L904.284 1646.75C903.417 1643.68 902.052 1641.34 900.135 1639.71C898.244 1638.09 895.749 1637.27 892.703 1637.27C889.657 1637.27 887.136 1637.95 885.009 1639.32C882.882 1640.69 881.28 1642.65 880.177 1645.25C879.074 1647.85 878.522 1651.03 878.522 1654.84C878.522 1658.65 879.074 1661.72 880.229 1664.32C881.358 1666.92 882.987 1668.89 885.114 1670.2C887.241 1671.54 889.762 1672.2 892.703 1672.2C894.961 1672.2 896.931 1671.8 898.585 1671.04C900.24 1670.28 901.632 1669.18 902.735 1667.76C903.837 1666.34 904.573 1664.58 904.993 1662.51L914.683 1665.79C913.764 1668.78 912.293 1671.38 910.35 1673.62C908.381 1675.85 905.938 1677.58 903.023 1678.82C900.082 1680.05 896.747 1680.65 892.939 1680.65C888.002 1680.65 883.669 1679.63 879.862 1677.55C876.054 1675.48 873.113 1672.51 871.038 1668.63C868.937 1664.74 867.887 1660.09 867.887 1654.71C867.887 1649.32 868.937 1644.68 871.038 1640.79C873.139 1636.9 876.054 1633.91 879.809 1631.86C883.564 1629.79 887.845 1628.76 892.624 1628.76V1628.79Z" fill="white"/>
<path d="M948.796 1628.79C953.654 1628.79 957.934 1629.81 961.663 1631.89C965.392 1633.96 968.307 1636.93 970.408 1640.82C972.509 1644.7 973.559 1649.35 973.559 1654.73C973.559 1660.12 972.509 1664.77 970.408 1668.65C968.307 1672.54 965.392 1675.53 961.663 1677.58C957.934 1679.63 953.654 1680.68 948.796 1680.68C943.937 1680.68 939.657 1679.66 935.928 1677.58C932.199 1675.51 929.284 1672.54 927.157 1668.65C925.03 1664.77 923.953 1660.12 923.953 1654.73C923.953 1649.35 925.004 1644.7 927.157 1640.82C929.284 1636.93 932.199 1633.94 935.928 1631.89C939.657 1629.81 943.937 1628.79 948.796 1628.79ZM948.796 1637.17C945.802 1637.17 943.255 1637.85 941.154 1639.21C939.053 1640.58 937.451 1642.55 936.322 1645.15C935.193 1647.75 934.615 1650.93 934.615 1654.73C934.615 1658.54 935.166 1661.64 936.322 1664.27C937.451 1666.89 939.053 1668.89 941.154 1670.25C943.255 1671.62 945.802 1672.3 948.796 1672.3C951.789 1672.3 954.31 1671.62 956.385 1670.25C958.46 1668.89 960.035 1666.89 961.164 1664.27C962.294 1661.64 962.871 1658.46 962.871 1654.73C962.871 1651.01 962.294 1647.75 961.164 1645.15C960.035 1642.55 958.433 1640.58 956.385 1639.21C954.31 1637.85 951.789 1637.17 948.796 1637.17Z" fill="white"/>
<path d="M992.413 1621.38C990.076 1621.38 988.317 1620.81 987.082 1619.62C985.848 1618.47 985.244 1616.81 985.244 1614.69C985.244 1612.56 985.848 1610.93 987.082 1609.8C988.317 1608.67 990.102 1608.1 992.413 1608.1C994.724 1608.1 996.431 1608.67 997.665 1609.8C998.9 1610.93 999.504 1612.56 999.504 1614.69C999.504 1616.81 998.9 1618.47 997.665 1619.62C996.431 1620.78 994.698 1621.38 992.413 1621.38ZM997.692 1629.76V1679.66H987.004V1629.76H997.692Z" fill="white"/>
<path d="M1014.37 1679.68V1629.79H1023.85L1024.56 1642.76L1023.16 1641.37C1024.08 1638.51 1025.45 1636.12 1027.21 1634.22C1028.97 1632.33 1031.07 1630.94 1033.48 1630.08C1035.9 1629.21 1038.5 1628.79 1041.23 1628.79C1044.75 1628.79 1047.93 1629.47 1050.76 1630.84C1053.6 1632.2 1055.83 1634.25 1057.51 1636.98C1059.17 1639.71 1060.01 1643.18 1060.01 1647.36V1679.68H1049.32V1650.64C1049.32 1645.7 1048.3 1642.31 1046.27 1640.4C1044.25 1638.51 1041.7 1637.56 1038.63 1637.56C1036.43 1637.56 1034.3 1638.09 1032.25 1639.11C1030.18 1640.13 1028.47 1641.79 1027.1 1644.05C1025.74 1646.3 1025.06 1649.32 1025.06 1653.13V1679.68H1014.37Z" fill="white"/>
<path d="M1081.52 1666.21C1083.77 1666.21 1085.59 1666.87 1086.95 1668.15C1088.32 1669.44 1089 1671.2 1089 1673.41C1089 1675.61 1088.32 1677.37 1086.95 1678.68C1085.59 1680.02 1083.77 1680.68 1081.52 1680.68C1079.26 1680.68 1077.34 1680.02 1075.97 1678.68C1074.61 1677.34 1073.93 1675.59 1073.93 1673.41C1073.93 1671.23 1074.61 1669.47 1075.97 1668.15C1077.34 1666.84 1079.18 1666.21 1081.52 1666.21Z" fill="white"/>
</svg>
