<svg width="1089" height="1702" viewBox="0 0 1089 1702" fill="none" xmlns="http://www.w3.org/2000/svg">
<path d="M111.45 1488.24C105.41 1493.02 98.0571 1495.41 89.3911 1495.41C80.1737 1495.41 72.4793 1493.34 66.2556 1489.19C60.0318 1485.04 55.3837 1478.81 52.3112 1470.52C49.2388 1462.22 47.7156 1452.03 47.7156 1439.92C47.7156 1427.82 49.3963 1417.42 52.7314 1409.2C56.0665 1400.98 60.8459 1394.81 67.0697 1390.66C73.2934 1386.51 80.6464 1384.43 89.1285 1384.43C97.6107 1384.43 104.964 1386.51 110.636 1390.66C116.334 1394.81 120.431 1402.48 122.952 1413.66L163.84 1397.14C160.767 1385.77 155.62 1376.48 148.399 1369.26C141.177 1362.03 132.327 1356.68 121.875 1353.16C111.397 1349.64 99.9479 1347.88 87.5004 1347.88C69.6432 1347.88 54.097 1351.53 40.9404 1358.83C27.7576 1366.16 17.6473 1376.66 10.6095 1390.37C3.57165 1404.08 0.0527344 1420.6 0.0527344 1439.92C0.0527344 1459.25 3.57165 1475.74 10.6095 1489.45C17.6473 1503.16 27.7576 1513.69 40.9404 1520.99C54.1232 1528.29 69.722 1531.94 87.7892 1531.94C100.421 1531.94 111.975 1530.1 122.453 1526.4C132.931 1522.7 141.939 1516.84 149.528 1508.8C157.117 1500.77 162.606 1490.53 166.046 1478.08L123.819 1466.16C121.665 1476.08 117.542 1483.44 111.503 1488.22L111.45 1488.24Z" fill="#FF303E"/>
<path d="M318.829 1358.83C305.751 1351.53 290.179 1347.88 272.138 1347.88C254.097 1347.88 238.472 1351.53 225.289 1358.83C212.106 1366.16 201.996 1376.66 194.958 1390.37C187.92 1404.08 184.401 1420.6 184.401 1439.92C184.401 1459.25 187.92 1475.74 194.958 1489.45C201.996 1503.16 212.106 1513.69 225.289 1520.99C238.472 1528.29 254.071 1531.94 272.138 1531.94C290.205 1531.94 305.751 1528.29 318.829 1520.99C331.907 1513.69 341.965 1503.16 349.029 1489.45C356.067 1475.74 359.585 1459.22 359.585 1439.92C359.585 1420.62 356.067 1404.1 349.029 1390.37C341.991 1376.66 331.933 1366.13 318.829 1358.83ZM307.327 1470.52C304.255 1478.81 299.79 1485.04 293.934 1489.19C288.078 1493.34 280.804 1495.41 272.138 1495.41C263.472 1495.41 256.171 1493.34 250.21 1489.19C244.249 1485.04 239.732 1478.81 236.66 1470.52C233.587 1462.22 232.064 1452.03 232.064 1439.92C232.064 1427.82 233.587 1417.42 236.66 1409.2C239.732 1400.98 244.249 1394.81 250.21 1390.66C256.171 1386.51 263.472 1384.43 272.138 1384.43C280.804 1384.43 288.052 1386.51 293.934 1390.66C299.79 1394.81 304.255 1400.98 307.327 1409.2C310.399 1417.42 311.923 1427.66 311.923 1439.92C311.923 1452.19 310.373 1462.22 307.327 1470.52Z" fill="#FF303E"/>
<path d="M438.079 1350.58H391.519V1529.26H527.68V1493.26H438.079V1350.58Z" fill="#FF303E"/>
<path d="M601.052 1456.7H674.687V1422.85H601.052V1386.59H693.621V1350.58H554.466V1529.26H697.139V1493.26H601.052V1456.7Z" fill="#FF303E"/>
<path d="M845.222 1440.74L846.299 1473.75H846.036L832.512 1447.22L776.997 1350.58H725.29V1529.26H766.44V1439.11L765.364 1406.07H765.626L779.177 1432.6L834.665 1529.26H886.372V1350.58H845.222V1440.74Z" fill="#FF303E"/>
<path d="M1001.71 1350.58H925.921V1529.26H1001.71C1029.68 1529.26 1051.1 1521.51 1065.99 1505.99C1080.88 1490.47 1088.34 1468.44 1088.34 1439.95C1088.34 1411.46 1080.91 1389.42 1065.99 1373.9C1051.1 1358.38 1029.68 1350.61 1001.71 1350.61V1350.58ZM1030.28 1480.39C1023.32 1489.5 1012.27 1494.07 997.113 1494.07H972.481V1385.77H997.113C1012.27 1385.77 1023.32 1390.34 1030.28 1399.46C1037.24 1408.57 1040.71 1422.07 1040.71 1439.92C1040.71 1457.78 1037.24 1471.28 1030.28 1480.39Z" fill="#FF303E"/>
<path d="M567.99 0.214531V200.635C552.365 202.447 536.451 205.362 520.353 209.406V0.293313L0.0263672 303.156V905.6L173.083 804.995C178.02 811.692 183.483 818.047 189.339 824.113H189.181L191.466 826.398L205.988 840.946L23.8184 946.855L544.198 1247.09L1064.58 946.855L820.38 804.864C830.674 792.39 840.312 779.602 849.345 766.603L1088.37 905.573V301.607L567.99 0.214531ZM747.979 813.766C679.702 882.044 598.478 928.709 519.224 945.174C443.62 960.878 379.386 946.96 338.341 905.915L315.836 883.41C326.209 884.591 336.818 885.221 347.637 885.221C450.027 885.221 570.406 832.28 668.463 734.223C776.892 625.794 830.096 490.105 817.649 381.597L840.154 404.102C881.199 445.147 895.144 509.38 879.414 584.985C862.948 664.239 816.257 745.463 748.006 813.74L747.979 813.766ZM317.306 383.067C406.513 293.86 514.602 244.989 603.599 244.989C652.627 244.989 695.852 259.826 726.945 290.919C814.445 378.445 773.137 562.217 634.797 700.584C496.456 838.924 312.711 880.285 225.132 792.732C137.605 705.205 178.94 521.434 317.306 383.067Z" fill="#FF303E"/>
<path d="M0.0263672 933.121V933.146H0.0516014L0.0263672 933.121Z" fill="#FF303E"/>
<path d="M23.2406 1613.82C33.561 1613.82 41.5967 1616.66 47.3478 1622.36C53.0988 1628.05 55.9875 1636.17 55.9875 1646.75C55.9875 1657.33 53.0988 1665.45 47.3478 1671.15C41.5967 1676.85 33.561 1679.68 23.2406 1679.68H0V1613.82H23.2406ZM23.2406 1670.6C30.2259 1670.6 35.5568 1668.52 39.2595 1664.35C42.9623 1660.2 44.8005 1654.31 44.8005 1646.72C44.8005 1639.14 42.9623 1633.28 39.2595 1629.1C35.5568 1624.95 30.2259 1622.85 23.2406 1622.85H10.688V1670.54H23.2668L23.2406 1670.6Z" fill="#FF303E"/>
<path d="M92.0173 1628.79C96.8755 1628.79 101.156 1629.81 104.885 1631.89C108.614 1633.96 111.529 1636.93 113.63 1640.82C115.731 1644.7 116.781 1649.35 116.781 1654.73C116.781 1660.12 115.731 1664.77 113.63 1668.65C111.529 1672.54 108.614 1675.53 104.885 1677.58C101.156 1679.63 96.8755 1680.68 92.0173 1680.68C87.1591 1680.68 82.8786 1679.66 79.1496 1677.58C75.4206 1675.51 72.5057 1672.54 70.3786 1668.65C68.2515 1664.77 67.1748 1660.12 67.1748 1654.73C67.1748 1649.35 68.2515 1644.7 70.3786 1640.82C72.5057 1636.93 75.4469 1633.94 79.1496 1631.89C82.8786 1629.81 87.1591 1628.79 92.0173 1628.79ZM92.0173 1637.17C89.0236 1637.17 86.4763 1637.85 84.3755 1639.21C82.2746 1640.58 80.6727 1642.55 79.5435 1645.15C78.4143 1647.75 77.8366 1650.93 77.8366 1654.73C77.8366 1658.54 78.3881 1661.64 79.5435 1664.27C80.6727 1666.89 82.2746 1668.89 84.3755 1670.25C86.4763 1671.62 89.0236 1672.3 92.0173 1672.3C95.011 1672.3 97.532 1671.62 99.6066 1670.25C101.655 1668.89 103.257 1666.89 104.386 1664.27C105.515 1661.64 106.093 1658.46 106.093 1654.73C106.093 1651.01 105.515 1647.75 104.386 1645.15C103.257 1642.55 101.655 1640.58 99.6066 1639.21C97.532 1637.85 95.011 1637.17 92.0173 1637.17Z" fill="#FF303E"/>
<path d="M130.225 1679.68V1629.79H139.706L140.415 1642.76L139.023 1641.37C139.942 1638.51 141.307 1636.12 143.067 1634.22C144.826 1632.33 146.927 1630.94 149.343 1630.08C151.759 1629.21 154.359 1628.79 157.09 1628.79C160.609 1628.79 163.786 1629.47 166.623 1630.84C169.459 1632.2 171.691 1634.25 173.345 1636.98C175 1639.71 175.84 1643.18 175.84 1647.36V1679.68H165.152V1650.64C165.152 1645.7 164.128 1642.31 162.106 1640.4C160.084 1638.51 157.536 1637.56 154.464 1637.56C152.258 1637.56 150.131 1638.09 148.083 1639.11C146.008 1640.13 144.301 1641.79 142.936 1644.05C141.57 1646.3 140.887 1649.32 140.887 1653.13V1679.68H130.199H130.225Z" fill="#FF303E"/>
<path d="M192.805 1610.22C194.67 1610.22 196.219 1610.67 197.453 1611.56C198.688 1612.46 199.633 1613.69 200.29 1615.27C200.946 1616.84 201.287 1618.6 201.287 1620.6C201.287 1623.06 200.815 1625.43 199.896 1627.74C198.95 1630.02 197.611 1632.12 195.852 1634.02C194.092 1635.91 191.965 1637.46 189.523 1638.66L184.533 1634.38C186.319 1633.73 187.921 1632.86 189.313 1631.78C190.704 1630.73 191.886 1629.52 192.858 1628.19C193.829 1626.85 194.512 1625.48 194.906 1624.09L194.512 1623.88C194.171 1624.09 193.803 1624.25 193.357 1624.38C192.91 1624.51 192.306 1624.59 191.519 1624.59C190.599 1624.59 189.628 1624.33 188.682 1623.83C187.711 1623.33 186.897 1622.57 186.24 1621.57C185.584 1620.57 185.242 1619.28 185.242 1617.68C185.242 1616.21 185.584 1614.92 186.293 1613.79C187.002 1612.67 187.895 1611.77 189.05 1611.14C190.179 1610.51 191.44 1610.2 192.832 1610.2L192.805 1610.22Z" fill="#FF303E"/>
<path d="M245.983 1629.79V1638.16H208.562V1629.79H245.983ZM228.808 1615.11V1664.71C228.808 1667.18 229.465 1668.97 230.752 1670.1C232.038 1671.23 233.798 1671.8 236.004 1671.8C237.79 1671.8 239.365 1671.51 240.704 1670.96C242.044 1670.41 243.252 1669.62 244.407 1668.63L246.797 1676.4C245.274 1677.74 243.383 1678.79 241.151 1679.55C238.919 1680.31 236.45 1680.71 233.719 1680.71C230.857 1680.71 228.231 1680.23 225.841 1679.31C223.451 1678.4 221.587 1676.87 220.247 1674.77C218.908 1672.67 218.225 1669.94 218.147 1666.55V1618.15L228.835 1615.16L228.808 1615.11Z" fill="#FF303E"/>
<path d="M307.958 1680.68C302.968 1680.68 298.399 1679.71 294.276 1677.79C290.153 1675.87 286.897 1673.14 284.507 1669.6L291.886 1663.22C293.357 1665.95 295.457 1668.13 298.215 1669.76C300.972 1671.38 304.281 1672.2 308.141 1672.2C311.214 1672.2 313.63 1671.67 315.416 1670.6C317.201 1669.52 318.12 1668.05 318.12 1666.11C318.12 1664.84 317.7 1663.72 316.886 1662.77C316.046 1661.8 314.47 1661.06 312.159 1660.54L301.681 1658.33C296.35 1657.26 292.569 1655.55 290.31 1653.19C288.052 1650.82 286.923 1647.8 286.923 1644.15C286.923 1641.42 287.711 1638.9 289.313 1636.56C290.914 1634.23 293.252 1632.36 296.35 1630.92C299.449 1629.5 303.152 1628.76 307.485 1628.76C312.474 1628.76 316.729 1629.66 320.247 1631.42C323.766 1633.17 326.471 1635.7 328.336 1638.95L320.956 1645.15C319.696 1642.5 317.831 1640.5 315.363 1639.21C312.894 1637.93 310.347 1637.27 307.669 1637.27C305.542 1637.27 303.703 1637.53 302.18 1638.06C300.657 1638.58 299.475 1639.32 298.688 1640.27C297.9 1641.18 297.48 1642.29 297.48 1643.55C297.48 1644.89 297.979 1646.04 298.976 1647.04C299.974 1648.04 301.76 1648.8 304.36 1649.32L315.731 1651.71C320.51 1652.63 323.898 1654.24 325.867 1656.44C327.837 1658.67 328.808 1661.38 328.808 1664.58C328.808 1667.79 327.968 1670.6 326.314 1673.01C324.659 1675.45 322.243 1677.32 319.118 1678.66C315.993 1680 312.264 1680.65 307.931 1680.65L307.958 1680.68Z" fill="#FF303E"/>
<path d="M363.63 1680.68C358.641 1680.68 354.255 1679.66 350.447 1677.58C346.666 1675.51 343.698 1672.54 341.624 1668.65C339.523 1664.77 338.473 1660.12 338.473 1654.73C338.473 1649.35 339.523 1644.7 341.624 1640.82C343.725 1636.93 346.64 1633.94 350.369 1631.89C354.098 1629.81 358.326 1628.79 363.053 1628.79C367.779 1628.79 372.034 1629.79 375.421 1631.78C378.809 1633.78 381.409 1636.51 383.194 1639.98C384.98 1643.44 385.899 1647.36 385.899 1651.74C385.899 1652.95 385.873 1654.08 385.794 1655.13C385.715 1656.21 385.637 1657.12 385.505 1657.91H345.379V1649.72H380.805L375.526 1651.32C375.526 1646.8 374.397 1643.31 372.139 1640.9C369.88 1638.48 366.782 1637.24 362.869 1637.24C360.006 1637.24 357.512 1637.9 355.384 1639.24C353.257 1640.58 351.629 1642.55 350.5 1645.18C349.371 1647.8 348.793 1651.01 348.793 1654.81C348.793 1658.62 349.397 1661.69 350.579 1664.29C351.787 1666.89 353.467 1668.86 355.673 1670.18C357.879 1671.51 360.453 1672.17 363.446 1672.17C366.782 1672.17 369.46 1671.54 371.535 1670.28C373.609 1669.02 375.237 1667.26 376.419 1665L384.901 1668.99C383.693 1671.38 382.091 1673.46 380.069 1675.24C378.047 1677 375.631 1678.34 372.848 1679.29C370.064 1680.23 366.992 1680.68 363.657 1680.68H363.63Z" fill="#FF303E"/>
<path d="M409.744 1607.33V1665.71C409.744 1668.18 410.164 1669.86 411.03 1670.81C411.897 1671.73 413.315 1672.2 415.311 1672.2C416.519 1672.2 417.517 1672.12 418.357 1671.94C419.197 1671.78 420.222 1671.46 421.508 1670.99L420.3 1678.97C419.171 1679.5 417.884 1679.92 416.414 1680.21C414.943 1680.5 413.473 1680.65 412.028 1680.65C407.564 1680.65 404.282 1679.5 402.207 1677.21C400.132 1674.93 399.056 1671.38 399.056 1666.58V1607.31H409.744V1607.33Z" fill="#FF303E"/>
<path d="M440.862 1607.33V1665.71C440.862 1668.18 441.308 1669.86 442.149 1670.81C442.989 1671.75 444.433 1672.2 446.429 1672.2C447.637 1672.2 448.635 1672.12 449.475 1671.94C450.316 1671.78 451.366 1671.46 452.627 1670.99L451.419 1678.97C450.289 1679.5 449.003 1679.92 447.532 1680.21C446.061 1680.5 444.617 1680.65 443.147 1680.65C438.682 1680.65 435.426 1679.5 433.325 1677.21C431.224 1674.93 430.174 1671.38 430.174 1666.58V1607.31H440.862V1607.33Z" fill="#FF303E"/>
<path d="M532.879 1629.79L511.03 1685.56C509.56 1689.42 507.984 1692.47 506.277 1694.76C504.57 1697.01 502.627 1698.64 500.447 1699.64C498.242 1700.64 495.694 1701.14 492.753 1701.14C490.363 1701.14 488.158 1700.82 486.109 1700.19C484.087 1699.56 482.301 1698.72 480.778 1697.64L483.378 1689.37C484.639 1690.45 485.978 1691.24 487.422 1691.76C488.84 1692.29 490.39 1692.55 492.07 1692.55C493.856 1692.55 495.484 1692.08 496.902 1691.11C498.32 1690.13 499.607 1688.22 500.736 1685.38L502.942 1680L497.664 1667.63L482.091 1629.81H494.066L505.148 1661.14L508.037 1670.52L511.319 1660.25L521.797 1629.81H532.879V1629.79Z" fill="#FF303E"/>
<path d="M563.315 1628.79C568.173 1628.79 572.454 1629.81 576.183 1631.89C579.912 1633.96 582.827 1636.93 584.928 1640.82C587.028 1644.7 588.079 1649.35 588.079 1654.73C588.079 1660.12 587.028 1664.77 584.928 1668.65C582.827 1672.54 579.912 1675.53 576.183 1677.58C572.454 1679.63 568.173 1680.68 563.315 1680.68C558.457 1680.68 554.176 1679.66 550.447 1677.58C546.718 1675.51 543.804 1672.54 541.676 1668.65C539.549 1664.77 538.473 1660.12 538.473 1654.73C538.473 1649.35 539.523 1644.7 541.676 1640.82C543.804 1636.93 546.718 1633.94 550.447 1631.89C554.176 1629.81 558.457 1628.79 563.315 1628.79ZM563.315 1637.17C560.321 1637.17 557.774 1637.85 555.673 1639.21C553.572 1640.58 551.971 1642.55 550.841 1645.15C549.712 1647.75 549.134 1650.93 549.134 1654.73C549.134 1658.54 549.686 1661.64 550.841 1664.27C551.971 1666.89 553.572 1668.89 555.673 1670.25C557.774 1671.62 560.321 1672.3 563.315 1672.3C566.309 1672.3 568.83 1671.62 570.904 1670.25C572.979 1668.89 574.555 1666.89 575.684 1664.27C576.813 1661.64 577.391 1658.46 577.391 1654.73C577.391 1651.01 576.813 1647.75 575.684 1645.15C574.555 1642.55 572.953 1640.58 570.904 1639.21C568.83 1637.85 566.309 1637.17 563.315 1637.17Z" fill="#FF303E"/>
<path d="M619.303 1680.68C616.047 1680.68 613.027 1680.08 610.27 1678.89C607.512 1677.69 605.306 1675.77 603.626 1673.12C601.971 1670.46 601.131 1667 601.131 1662.74V1629.81H611.819V1660.04C611.819 1664.56 612.791 1667.68 614.708 1669.36C616.625 1671.07 619.329 1671.91 622.796 1671.91C624.45 1671.91 626.078 1671.62 627.628 1671.07C629.177 1670.52 630.595 1669.6 631.882 1668.36C633.142 1667.13 634.114 1665.55 634.823 1663.64C635.532 1661.72 635.874 1659.44 635.874 1656.86V1629.81H646.562V1679.71H637.187L636.688 1671.62C634.954 1674.75 632.617 1677.06 629.702 1678.5C626.761 1679.97 623.321 1680.71 619.329 1680.71L619.303 1680.68Z" fill="#FF303E"/>
<path d="M663.211 1679.68V1629.79H672.297L673.295 1638.77C674.634 1635.51 676.604 1633.04 679.23 1631.34C681.856 1629.63 685.112 1628.79 688.972 1628.79C689.97 1628.79 690.968 1628.87 691.966 1629.03C692.964 1629.18 693.805 1629.45 694.461 1629.79L692.964 1639.16C692.229 1638.9 691.415 1638.69 690.522 1638.51C689.629 1638.32 688.421 1638.27 686.872 1638.27C684.797 1638.27 682.775 1638.82 680.779 1639.92C678.783 1641.03 677.129 1642.65 675.842 1644.86C674.555 1647.07 673.899 1649.85 673.899 1653.24V1679.68H663.211Z" fill="#FF303E"/>
<path d="M736.346 1679.68V1613.82H762.291C770.196 1613.82 775.999 1615.42 779.649 1618.6C783.3 1621.78 785.138 1626.22 785.138 1631.86C785.138 1635.33 784.14 1638.4 782.144 1641.11C780.148 1643.81 777.207 1645.52 773.373 1646.25V1646.36C777.627 1647.01 780.936 1648.77 783.3 1651.61C785.663 1654.45 786.845 1657.73 786.845 1661.43C786.845 1667.08 784.77 1671.54 780.647 1674.8C776.524 1678.05 770.537 1679.68 762.685 1679.68H736.346ZM746.824 1642.16H761.503C769.88 1642.16 774.082 1638.93 774.082 1632.47C774.082 1626.01 769.88 1622.78 761.503 1622.78H746.824V1642.13V1642.16ZM746.824 1670.81H763.184C767.386 1670.81 770.511 1669.94 772.612 1668.21C774.712 1666.47 775.763 1664.06 775.763 1660.93C775.763 1657.81 774.712 1655.36 772.612 1653.66C770.511 1651.92 767.359 1651.06 763.184 1651.06H746.824V1670.81Z" fill="#FF303E"/>
<path d="M806.304 1621.38C803.967 1621.38 802.207 1620.81 800.973 1619.62C799.739 1618.47 799.135 1616.81 799.135 1614.69C799.135 1612.56 799.739 1610.93 800.973 1609.8C802.207 1608.67 803.993 1608.1 806.304 1608.1C808.615 1608.1 810.322 1608.67 811.556 1609.8C812.79 1610.93 813.394 1612.56 813.394 1614.69C813.394 1616.81 812.79 1618.47 811.556 1619.62C810.322 1620.78 808.589 1621.38 806.304 1621.38ZM811.582 1629.76V1679.66H800.894V1629.76H811.582Z" fill="#FF303E"/>
<path d="M859.981 1629.79V1638.16H822.56V1629.79H859.981ZM842.806 1615.11V1664.71C842.806 1667.18 843.463 1668.97 844.75 1670.1C846.036 1671.23 847.796 1671.8 850.002 1671.8C851.788 1671.8 853.363 1671.51 854.702 1670.96C856.042 1670.41 857.276 1669.62 858.405 1668.63L860.795 1676.4C859.272 1677.74 857.381 1678.79 855.149 1679.55C852.917 1680.31 850.448 1680.71 847.717 1680.71C844.855 1680.71 842.229 1680.23 839.839 1679.31C837.449 1678.4 835.585 1676.87 834.245 1674.77C832.906 1672.67 832.223 1669.94 832.145 1666.55V1618.15L842.833 1615.16L842.806 1615.11Z" fill="#FF303E"/>
<path d="M892.123 1628.79C896.115 1628.79 899.529 1629.37 902.339 1630.55C905.175 1631.7 907.538 1633.36 909.481 1635.49C911.398 1637.61 912.869 1640.05 913.867 1642.76L903.783 1646.75C902.916 1643.68 901.551 1641.34 899.634 1639.71C897.743 1638.09 895.248 1637.27 892.202 1637.27C889.156 1637.27 886.635 1637.95 884.508 1639.32C882.381 1640.69 880.779 1642.65 879.676 1645.25C878.573 1647.85 878.021 1651.03 878.021 1654.84C878.021 1658.65 878.573 1661.72 879.728 1664.32C880.857 1666.92 882.486 1668.89 884.613 1670.2C886.74 1671.54 889.261 1672.2 892.202 1672.2C894.46 1672.2 896.43 1671.8 898.084 1671.04C899.739 1670.28 901.131 1669.18 902.234 1667.76C903.336 1666.34 904.072 1664.58 904.492 1662.51L914.182 1665.79C913.263 1668.78 911.792 1671.38 909.849 1673.62C907.88 1675.85 905.437 1677.58 902.522 1678.82C899.581 1680.05 896.246 1680.65 892.438 1680.65C887.501 1680.65 883.168 1679.63 879.361 1677.55C875.553 1675.48 872.612 1672.51 870.537 1668.63C868.436 1664.74 867.386 1660.09 867.386 1654.71C867.386 1649.32 868.436 1644.68 870.537 1640.79C872.638 1636.9 875.553 1633.91 879.308 1631.86C883.063 1629.79 887.344 1628.76 892.123 1628.76V1628.79Z" fill="#FF303E"/>
<path d="M948.295 1628.79C953.153 1628.79 957.433 1629.81 961.162 1631.89C964.891 1633.96 967.806 1636.93 969.907 1640.82C972.008 1644.7 973.058 1649.35 973.058 1654.73C973.058 1660.12 972.008 1664.77 969.907 1668.65C967.806 1672.54 964.891 1675.53 961.162 1677.58C957.433 1679.63 953.153 1680.68 948.295 1680.68C943.436 1680.68 939.156 1679.66 935.427 1677.58C931.698 1675.51 928.783 1672.54 926.656 1668.65C924.529 1664.77 923.452 1660.12 923.452 1654.73C923.452 1649.35 924.503 1644.7 926.656 1640.82C928.783 1636.93 931.698 1633.94 935.427 1631.89C939.156 1629.81 943.436 1628.79 948.295 1628.79ZM948.295 1637.17C945.301 1637.17 942.754 1637.85 940.653 1639.21C938.552 1640.58 936.95 1642.55 935.821 1645.15C934.692 1647.75 934.114 1650.93 934.114 1654.73C934.114 1658.54 934.665 1661.64 935.821 1664.27C936.95 1666.89 938.552 1668.89 940.653 1670.25C942.754 1671.62 945.301 1672.3 948.295 1672.3C951.288 1672.3 953.809 1671.62 955.884 1670.25C957.959 1668.89 959.534 1666.89 960.663 1664.27C961.793 1661.64 962.37 1658.46 962.37 1654.73C962.37 1651.01 961.793 1647.75 960.663 1645.15C959.534 1642.55 957.932 1640.58 955.884 1639.21C953.809 1637.85 951.288 1637.17 948.295 1637.17Z" fill="#FF303E"/>
<path d="M991.913 1621.38C989.576 1621.38 987.817 1620.81 986.582 1619.62C985.348 1618.47 984.744 1616.81 984.744 1614.69C984.744 1612.56 985.348 1610.93 986.582 1609.8C987.817 1608.67 989.602 1608.1 991.913 1608.1C994.224 1608.1 995.931 1608.67 997.165 1609.8C998.4 1610.93 999.004 1612.56 999.004 1614.69C999.004 1616.81 998.4 1618.47 997.165 1619.62C995.931 1620.78 994.198 1621.38 991.913 1621.38ZM997.192 1629.76V1679.66H986.504V1629.76H997.192Z" fill="#FF303E"/>
<path d="M1013.87 1679.68V1629.79H1023.35L1024.06 1642.76L1022.66 1641.37C1023.58 1638.51 1024.95 1636.12 1026.71 1634.22C1028.47 1632.33 1030.57 1630.94 1032.98 1630.08C1035.4 1629.21 1038 1628.79 1040.73 1628.79C1044.25 1628.79 1047.43 1629.47 1050.26 1630.84C1053.1 1632.2 1055.33 1634.25 1057.01 1636.98C1058.67 1639.71 1059.51 1643.18 1059.51 1647.36V1679.68H1048.82V1650.64C1048.82 1645.7 1047.8 1642.31 1045.77 1640.4C1043.75 1638.51 1041.2 1637.56 1038.13 1637.56C1035.93 1637.56 1033.8 1638.09 1031.75 1639.11C1029.68 1640.13 1027.97 1641.79 1026.6 1644.05C1025.24 1646.3 1024.56 1649.32 1024.56 1653.13V1679.68H1013.87Z" fill="#FF303E"/>
<path d="M1081.02 1666.21C1083.27 1666.21 1085.09 1666.87 1086.45 1668.15C1087.82 1669.44 1088.5 1671.2 1088.5 1673.41C1088.5 1675.61 1087.82 1677.37 1086.45 1678.68C1085.09 1680.02 1083.27 1680.68 1081.02 1680.68C1078.76 1680.68 1076.84 1680.02 1075.48 1678.68C1074.11 1677.34 1073.43 1675.59 1073.43 1673.41C1073.43 1671.23 1074.11 1669.47 1075.48 1668.15C1076.84 1666.84 1078.68 1666.21 1081.02 1666.21Z" fill="#FF303E"/>
</svg>
