<svg width="1108" height="1269" viewBox="0 0 1108 1269" fill="none" xmlns="http://www.w3.org/2000/svg">
<path d="M578.154 0V203.961C562.261 205.806 546.037 208.785 529.671 212.899V0.0945798L0 308.283V921.397L176.147 819.014C181.161 825.824 186.742 832.302 192.702 838.497H192.513L194.831 840.815L209.636 855.616L24.2178 963.39L553.936 1268.93L1083.65 963.39L835.09 818.872C845.59 806.198 855.382 793.146 864.558 779.952L1107.87 921.397V306.722L578.154 0ZM761.348 827.952C691.864 897.421 609.135 944.947 528.488 961.688C451.53 977.672 386.114 963.485 344.347 921.728L321.454 898.839C332.002 900.069 342.787 900.684 353.808 900.684C458.01 900.684 580.566 846.82 680.37 746.991C790.769 636.617 844.928 498.578 832.204 388.108L855.098 410.997C896.864 452.754 911.054 518.156 895.067 595.096C878.275 675.726 830.785 758.436 761.301 827.904L761.348 827.952ZM322.968 389.622C413.784 298.825 523.805 249.123 614.386 249.123C664.288 249.123 708.325 264.209 739.969 295.846C829.035 384.94 786.985 571.971 646.172 712.754C505.358 853.536 318.332 895.624 229.171 806.529C140.057 717.435 182.154 530.404 322.968 389.622Z" fill="#FF303E"/>
</svg>
