<svg width="1548" height="427" viewBox="0 0 1548 427" fill="none" xmlns="http://www.w3.org/2000/svg">
<path d="M171.904 60.6615C167.174 61.2166 162.356 62.0825 157.493 63.3038V0L0 91.6805V274.02L52.3794 243.578C53.867 245.599 55.5323 247.531 57.3087 249.374H57.2643L57.9526 250.062L62.349 254.458L7.21632 286.521L164.71 377.38L322.203 286.521L248.286 243.556C251.394 239.782 254.325 235.918 257.056 231.988L329.397 274.042V91.2143L171.904 0V60.6615ZM254.281 122.256C266.693 134.668 270.912 154.118 266.16 177.011C261.164 200.991 247.042 225.571 226.393 246.243C205.721 266.915 181.141 281.037 157.16 286.01C134.268 290.762 114.839 286.543 102.405 274.131L95.5884 267.315C98.7192 267.67 101.939 267.87 105.203 267.87C136.2 267.87 172.614 251.838 202.301 222.174C235.119 189.356 251.217 148.279 247.442 115.439L254.259 122.256H254.281ZM220.02 87.9947C246.509 114.484 233.986 170.105 192.132 211.982C150.255 253.859 94.6559 266.382 68.1442 239.87C41.6548 213.381 54.1779 157.76 96.0325 115.883C123.033 88.8828 155.739 74.0949 182.673 74.0949C197.505 74.0949 210.605 78.5802 219.998 87.9947H220.02Z" fill="#FF303E"/>
<path d="M598.222 223.994L554.724 211.738C552.504 221.952 548.263 229.523 542.046 234.452C535.829 239.382 528.257 241.846 519.331 241.846C509.85 241.846 501.901 239.715 495.506 235.429C489.089 231.166 484.315 224.749 481.14 216.201C477.987 207.652 476.411 197.15 476.411 184.693C476.411 172.237 478.12 161.512 481.562 153.052C485.004 144.593 489.933 138.242 496.328 133.957C502.745 129.672 510.316 127.54 519.042 127.54C527.769 127.54 535.362 129.672 541.202 133.957C547.064 138.242 551.283 146.125 553.88 157.649L595.979 140.64C592.826 128.939 587.52 119.369 580.081 111.93C572.643 104.492 563.539 98.9633 552.77 95.344C541.979 91.7248 530.189 89.9041 517.355 89.9041C498.948 89.9041 482.961 93.6787 469.416 101.184C455.85 108.711 445.436 119.546 438.197 133.668C430.959 147.79 427.317 164.798 427.317 184.693C427.317 204.588 430.937 221.596 438.197 235.696C445.458 249.818 455.85 260.653 469.416 268.18C482.983 275.708 499.059 279.46 517.643 279.46C530.655 279.46 542.534 277.551 553.325 273.754C564.094 269.957 573.398 263.917 581.214 255.635C589.007 247.375 594.692 236.828 598.222 223.994Z" fill="#FF303E"/>
<path d="M786.689 235.696C793.928 221.574 797.569 204.566 797.569 184.693C797.569 164.821 793.95 147.79 786.689 133.668C779.429 119.546 769.082 108.711 755.604 101.184C742.126 93.6565 726.095 89.9041 707.51 89.9041C688.925 89.9041 672.849 93.6787 659.283 101.184C645.716 108.711 635.302 119.546 628.064 133.668C620.825 147.79 617.184 164.798 617.184 184.693C617.184 204.588 620.803 221.596 628.064 235.696C635.324 249.818 645.716 260.653 659.283 268.18C672.849 275.708 688.925 279.46 707.51 279.46C726.095 279.46 742.126 275.708 755.604 268.18C769.082 260.653 779.451 249.84 786.689 235.696ZM743.747 216.179C740.594 224.727 735.975 231.144 729.958 235.407C723.919 239.693 716.436 241.824 707.51 241.824C698.584 241.824 691.057 239.693 684.928 235.407C678.8 231.144 674.137 224.727 670.984 216.179C667.831 207.63 666.255 197.127 666.255 184.671C666.255 172.214 667.831 161.49 670.984 153.03C674.137 144.57 678.8 138.22 684.928 133.935C691.057 129.649 698.584 127.518 707.51 127.518C716.436 127.518 723.919 129.649 729.958 133.935C735.998 138.22 740.594 144.57 743.747 153.03C746.9 161.49 748.476 172.037 748.476 184.671C748.476 197.305 746.9 207.63 743.747 216.179Z" fill="#FF303E"/>
<path d="M970.673 239.604H878.393V92.7019H830.454V276.685H970.673V239.604Z" fill="#FF303E"/>
<path d="M1145.17 239.604H1046.21V201.968H1122.04V167.13H1046.21V129.783H1141.56V92.7019H998.272V276.685H1145.17V239.604Z" fill="#FF303E"/>
<path d="M1340.04 276.685V92.7019H1297.67V185.515L1298.78 219.531H1298.49L1284.55 192.22L1227.42 92.7019H1174.17V276.685H1216.54V183.85L1215.43 149.833H1215.69L1229.64 177.166L1286.79 276.685H1340.04Z" fill="#FF303E"/>
<path d="M1525 116.66C1509.68 100.673 1487.58 92.6797 1458.78 92.6797H1380.74V276.685H1458.78C1487.58 276.685 1509.65 268.691 1525 252.704C1540.34 236.717 1548 214.047 1548 184.671C1548 155.295 1540.34 132.647 1525 116.638V116.66ZM1488.2 226.37C1481.06 235.763 1469.66 240.448 1454.06 240.448H1428.7V128.939H1454.06C1469.66 128.939 1481.06 133.646 1488.2 143.016C1495.35 152.409 1498.93 166.286 1498.93 184.693C1498.93 203.1 1495.35 216.978 1488.2 226.37Z" fill="#FF303E"/>
<path d="M500.879 344.674C510.516 344.674 518.021 347.338 523.394 352.645C528.768 357.952 531.454 365.568 531.454 375.448C531.454 385.329 528.768 392.945 523.394 398.252C518.021 403.559 510.516 406.223 500.879 406.223H479.142V344.674H500.879ZM500.879 397.741C507.407 397.741 512.403 395.787 515.845 391.924C519.287 388.038 521.018 382.554 521.018 375.471C521.018 368.388 519.287 362.903 515.845 359.017C512.403 355.132 507.407 353.2 500.879 353.2H489.133V397.786H500.879V397.741Z" fill="#FF303E"/>
<path d="M565.138 358.662C569.667 358.662 573.686 359.617 577.172 361.549C580.658 363.48 583.367 366.256 585.321 369.897C587.275 373.539 588.252 377.869 588.252 382.909C588.252 387.949 587.275 392.279 585.321 395.921C583.367 399.562 580.636 402.338 577.172 404.269C573.686 406.201 569.689 407.156 565.138 407.156C560.586 407.156 556.589 406.201 553.103 404.269C549.617 402.338 546.886 399.562 544.887 395.921C542.889 392.279 541.912 387.949 541.912 382.909C541.912 377.869 542.911 373.539 544.887 369.897C546.886 366.256 549.617 363.48 553.103 361.549C556.589 359.617 560.586 358.662 565.138 358.662ZM565.138 366.5C562.34 366.5 559.964 367.144 558.01 368.41C556.056 369.675 554.546 371.54 553.48 373.961C552.415 376.381 551.904 379.378 551.904 382.909C551.904 386.439 552.437 389.37 553.48 391.813C554.546 394.277 556.034 396.143 558.01 397.408C559.964 398.674 562.34 399.318 565.138 399.318C567.935 399.318 570.289 398.674 572.221 397.408C574.152 396.143 575.64 394.277 576.706 391.813C577.772 389.348 578.282 386.395 578.282 382.909C578.282 379.423 577.749 376.381 576.706 373.961C575.64 371.54 574.152 369.698 572.221 368.41C570.289 367.144 567.935 366.5 565.138 366.5Z" fill="#FF303E"/>
<path d="M600.864 406.223V359.595H609.724L610.368 371.718L609.058 370.408C609.924 367.744 611.189 365.501 612.832 363.747C614.475 361.971 616.429 360.683 618.716 359.883C620.981 359.084 623.401 358.662 625.955 358.662C629.241 358.662 632.216 359.306 634.859 360.572C637.501 361.837 639.588 363.747 641.142 366.3C642.697 368.854 643.474 372.073 643.474 376.003V406.223H633.504V379.09C633.504 374.494 632.549 371.296 630.662 369.52C628.775 367.744 626.377 366.855 623.535 366.855C621.492 366.855 619.494 367.344 617.562 368.299C615.63 369.253 614.031 370.808 612.766 372.917C611.5 375.026 610.856 377.869 610.856 381.399V406.201H600.886L600.864 406.223Z" fill="#FF303E"/>
<path d="M659.327 341.298C661.059 341.298 662.503 341.72 663.657 342.564C664.812 343.408 665.7 344.562 666.322 346.006C666.943 347.471 667.254 349.136 667.254 351.002C667.254 353.311 666.81 355.531 665.944 357.663C665.078 359.817 663.813 361.77 662.169 363.547C660.526 365.323 658.55 366.766 656.241 367.877L651.578 363.858C653.266 363.236 654.753 362.437 656.063 361.437C657.373 360.438 658.461 359.328 659.372 358.085C660.282 356.841 660.904 355.576 661.281 354.266L660.904 354.088C660.593 354.266 660.238 354.421 659.838 354.554C659.438 354.687 658.861 354.732 658.106 354.732C657.24 354.732 656.352 354.488 655.442 354.021C654.531 353.555 653.776 352.844 653.155 351.912C652.533 350.979 652.222 349.758 652.222 348.27C652.222 346.894 652.555 345.695 653.199 344.629C653.843 343.563 654.709 342.742 655.775 342.164C656.84 341.565 658.017 341.276 659.327 341.276V341.298Z" fill="#FF303E"/>
<path d="M709.043 359.595V367.433H674.071V359.595H709.043ZM693.011 345.895V392.235C693.011 394.544 693.611 396.209 694.832 397.275C696.053 398.341 697.674 398.852 699.739 398.852C701.427 398.852 702.87 398.585 704.113 398.052C705.357 397.519 706.511 396.787 707.555 395.854L709.798 403.137C708.377 404.38 706.6 405.357 704.535 406.068C702.448 406.779 700.139 407.134 697.585 407.134C694.921 407.134 692.456 406.69 690.214 405.824C687.971 404.958 686.239 403.537 684.996 401.583C683.752 399.629 683.108 397.053 683.042 393.9V348.671L693.011 345.873V345.895Z" fill="#FF303E"/>
<path d="M766.951 407.156C762.288 407.156 758.025 406.245 754.183 404.447C750.32 402.648 747.278 400.095 745.035 396.809L751.941 390.836C753.317 393.389 755.271 395.41 757.869 396.942C760.445 398.474 763.531 399.229 767.15 399.229C770.015 399.229 772.28 398.74 773.967 397.741C775.655 396.742 776.476 395.343 776.476 393.545C776.476 392.368 776.076 391.324 775.321 390.414C774.544 389.504 773.057 388.815 770.881 388.305L761.089 386.262C756.115 385.263 752.562 383.664 750.453 381.466C748.344 379.268 747.278 376.448 747.278 373.028C747.278 370.475 748.033 368.121 749.52 365.945C751.008 363.769 753.206 362.015 756.093 360.683C758.979 359.35 762.443 358.684 766.484 358.684C771.147 358.684 775.122 359.506 778.43 361.149C781.716 362.792 784.248 365.146 785.979 368.188L779.074 373.961C777.897 371.474 776.143 369.631 773.856 368.41C771.547 367.188 769.171 366.589 766.684 366.589C764.686 366.589 762.976 366.833 761.555 367.344C760.134 367.855 759.046 368.521 758.291 369.387C757.536 370.253 757.181 371.274 757.181 372.473C757.181 373.716 757.647 374.804 758.58 375.737C759.512 376.67 761.2 377.38 763.62 377.891L774.256 380.133C778.741 380.999 781.894 382.487 783.715 384.574C785.558 386.661 786.468 389.193 786.468 392.168C786.468 395.143 785.691 397.786 784.136 400.05C782.582 402.315 780.34 404.069 777.431 405.313C774.5 406.556 771.036 407.178 766.995 407.178L766.951 407.156Z" fill="#FF303E"/>
<path d="M818.974 407.156C814.311 407.156 810.204 406.201 806.673 404.269C803.143 402.338 800.389 399.562 798.413 395.921C796.459 392.279 795.482 387.949 795.482 382.909C795.482 377.869 796.459 373.539 798.413 369.897C800.367 366.256 803.098 363.48 806.562 361.549C810.048 359.617 814.001 358.662 818.397 358.662C822.793 358.662 826.79 359.595 829.965 361.46C833.14 363.325 835.561 365.878 837.248 369.098C838.936 372.318 839.757 376.003 839.757 380.111C839.757 381.221 839.735 382.287 839.668 383.286C839.602 384.286 839.513 385.152 839.38 385.906H801.899V378.268H835.006L830.054 379.756C830.054 375.537 828.988 372.273 826.879 370.008C824.77 367.744 821.883 366.611 818.197 366.611C815.533 366.611 813.201 367.233 811.203 368.476C809.204 369.72 807.695 371.563 806.629 374.027C805.563 376.492 805.052 379.49 805.052 383.02C805.052 386.55 805.607 389.459 806.74 391.879C807.872 394.3 809.449 396.143 811.492 397.386C813.534 398.629 815.977 399.251 818.774 399.251C821.883 399.251 824.392 398.652 826.324 397.475C828.256 396.298 829.765 394.655 830.898 392.523L838.825 396.254C837.715 398.496 836.205 400.428 834.295 402.071C832.408 403.714 830.143 404.98 827.545 405.846C824.947 406.712 822.083 407.156 818.974 407.156Z" fill="#FF303E"/>
<path d="M862.073 338.612V393.167C862.073 395.476 862.473 397.053 863.294 397.919C864.094 398.785 865.448 399.229 867.313 399.229C868.423 399.229 869.378 399.162 870.155 399.007C870.933 398.851 871.909 398.563 873.086 398.119L871.976 405.579C870.91 406.068 869.711 406.467 868.335 406.756C866.958 407.045 865.604 407.178 864.227 407.178C860.053 407.178 857.011 406.112 855.034 403.958C853.058 401.805 852.104 398.496 852.104 394.033V338.634H862.073V338.612Z" fill="#FF303E"/>
<path d="M891.16 338.612V393.167C891.16 395.476 891.56 397.053 892.381 397.919C893.181 398.785 894.535 399.229 896.4 399.229C897.51 399.229 898.465 399.162 899.242 399.007C900.019 398.851 900.996 398.563 902.173 398.119L901.063 405.579C899.997 406.068 898.798 406.467 897.422 406.756C896.045 407.045 894.691 407.178 893.314 407.178C889.14 407.178 886.098 406.112 884.121 403.958C882.167 401.805 881.19 398.496 881.19 394.033V338.634H891.16V338.612Z" fill="#FF303E"/>
<path d="M977.157 359.595L956.729 411.73C955.352 415.327 953.887 418.191 952.31 420.301C950.734 422.41 948.913 423.942 946.848 424.875C944.805 425.807 942.407 426.273 939.676 426.273C937.434 426.273 935.369 425.985 933.481 425.385C931.594 424.786 929.929 424.009 928.485 423.009L930.906 415.26C932.082 416.259 933.348 416.992 934.68 417.503C936.013 417.991 937.456 418.258 939.01 418.258C940.698 418.258 942.185 417.814 943.54 416.903C944.872 415.993 946.071 414.217 947.137 411.53L949.18 406.49L944.228 394.921L929.684 359.573H940.875L951.222 388.86L953.931 397.63L957.018 388.016L966.81 359.573H977.157V359.595Z" fill="#FF303E"/>
<path d="M1005.6 358.662C1010.13 358.662 1014.15 359.617 1017.63 361.549C1021.12 363.48 1023.83 366.256 1025.81 369.897C1027.76 373.539 1028.74 377.869 1028.74 382.909C1028.74 387.949 1027.76 392.279 1025.81 395.921C1023.85 399.562 1021.12 402.338 1017.63 404.269C1014.15 406.201 1010.15 407.156 1005.6 407.156C1001.05 407.156 997.051 406.201 993.565 404.269C990.079 402.338 987.348 399.562 985.349 395.921C983.351 392.279 982.374 387.949 982.374 382.909C982.374 377.869 983.373 373.539 985.349 369.897C987.348 366.256 990.079 363.48 993.565 361.549C997.051 359.617 1001.05 358.662 1005.6 358.662ZM1005.6 366.5C1002.8 366.5 1000.43 367.144 998.472 368.41C996.518 369.675 995.008 371.54 993.942 373.961C992.877 376.381 992.366 379.378 992.366 382.909C992.366 386.439 992.899 389.37 993.942 391.813C995.008 394.277 996.518 396.143 998.472 397.408C1000.43 398.674 1002.8 399.318 1005.6 399.318C1008.4 399.318 1010.75 398.674 1012.68 397.408C1014.61 396.143 1016.1 394.277 1017.17 391.813C1018.23 389.348 1018.74 386.395 1018.74 382.909C1018.74 379.423 1018.21 376.381 1017.17 373.961C1016.1 371.54 1014.61 369.698 1012.68 368.41C1010.75 367.144 1008.4 366.5 1005.6 366.5Z" fill="#FF303E"/>
<path d="M1057.91 407.156C1054.87 407.156 1052.05 406.601 1049.47 405.468C1046.9 404.358 1044.83 402.537 1043.28 400.05C1041.73 397.564 1040.95 394.322 1040.95 390.347V359.573H1050.92V387.838C1050.92 392.079 1051.83 394.966 1053.63 396.564C1055.43 398.141 1057.96 398.94 1061.18 398.94C1062.73 398.94 1064.24 398.674 1065.71 398.141C1067.17 397.608 1068.48 396.764 1069.68 395.632C1070.86 394.477 1071.79 393.012 1072.43 391.191C1073.08 389.37 1073.41 387.283 1073.41 384.841V359.573H1083.38V406.201H1074.61L1074.14 398.652C1072.52 401.583 1070.35 403.714 1067.62 405.091C1064.88 406.467 1061.64 407.134 1057.91 407.134V407.156Z" fill="#FF303E"/>
<path d="M1098.95 406.223V359.595H1107.43L1108.36 367.988C1109.6 364.946 1111.45 362.614 1113.91 361.038C1116.38 359.461 1119.4 358.662 1123.01 358.662C1123.95 358.662 1124.88 358.751 1125.81 358.884C1126.74 359.04 1127.52 359.284 1128.14 359.595L1126.74 368.365C1126.06 368.121 1125.3 367.921 1124.46 367.766C1123.61 367.61 1122.48 367.544 1121.06 367.544C1119.13 367.544 1117.24 368.054 1115.38 369.076C1113.51 370.097 1111.98 371.651 1110.76 373.694C1109.54 375.737 1108.94 378.357 1108.94 381.532V406.245H1098.97L1098.95 406.223Z" fill="#FF303E"/>
<path d="M1167.29 406.223V344.674H1191.54C1198.93 344.674 1204.35 346.161 1207.77 349.159C1211.19 352.156 1212.9 356.286 1212.9 361.571C1212.9 364.813 1211.96 367.677 1210.1 370.186C1208.23 372.695 1205.5 374.316 1201.88 374.982V375.071C1205.86 375.693 1208.94 377.336 1211.17 379.978C1213.36 382.62 1214.47 385.684 1214.47 389.171C1214.47 394.455 1212.54 398.629 1208.7 401.671C1204.86 404.713 1199.24 406.245 1191.91 406.245H1167.29V406.223ZM1177.08 371.163H1190.78C1198.62 371.163 1202.53 368.143 1202.53 362.126C1202.53 356.109 1198.62 353.089 1190.78 353.089H1177.08V371.185V371.163ZM1177.08 397.919H1192.38C1196.29 397.919 1199.24 397.12 1201.2 395.499C1203.15 393.878 1204.13 391.613 1204.13 388.682C1204.13 385.751 1203.15 383.486 1201.2 381.865C1199.24 380.244 1196.29 379.445 1192.38 379.445H1177.08V397.919Z" fill="#FF303E"/>
<path d="M1232.66 351.757C1230.48 351.757 1228.82 351.224 1227.66 350.136C1226.51 349.048 1225.93 347.516 1225.93 345.517C1225.93 343.519 1226.51 342.009 1227.66 340.943C1228.82 339.878 1230.48 339.367 1232.66 339.367C1234.83 339.367 1236.41 339.9 1237.57 340.943C1238.72 342.009 1239.3 343.519 1239.3 345.517C1239.3 347.516 1238.72 349.048 1237.57 350.136C1236.41 351.224 1234.79 351.757 1232.66 351.757ZM1237.61 359.595V406.223H1227.64V359.595H1237.61Z" fill="#FF303E"/>
<path d="M1282.84 359.595V367.433H1247.87V359.595H1282.84ZM1266.81 345.895V392.235C1266.81 394.544 1267.41 396.209 1268.63 397.275C1269.85 398.341 1271.47 398.852 1273.54 398.852C1275.22 398.852 1276.67 398.585 1277.91 398.052C1279.15 397.519 1280.31 396.787 1281.35 395.854L1283.59 403.137C1282.17 404.38 1280.42 405.357 1278.33 406.068C1276.24 406.779 1273.94 407.134 1271.38 407.134C1268.83 407.134 1266.25 406.69 1264.01 405.824C1261.77 404.958 1260.04 403.537 1258.79 401.583C1257.55 399.629 1256.91 397.053 1256.84 393.9V348.671L1266.81 345.873V345.895Z" fill="#FF303E"/>
<path d="M1312.86 358.662C1316.59 358.662 1319.79 359.217 1322.43 360.305C1325.07 361.393 1327.29 362.925 1329.09 364.924C1330.89 366.922 1332.27 369.187 1333.2 371.74L1323.78 375.471C1322.98 372.606 1321.7 370.43 1319.92 368.898C1318.14 367.366 1315.83 366.611 1312.97 366.611C1310.11 366.611 1307.77 367.255 1305.8 368.521C1303.8 369.786 1302.29 371.651 1301.27 374.072C1300.25 376.492 1299.74 379.49 1299.74 383.02C1299.74 386.55 1300.27 389.459 1301.31 391.879C1302.38 394.3 1303.89 396.143 1305.89 397.386C1307.89 398.629 1310.24 399.251 1312.97 399.251C1315.08 399.251 1316.92 398.896 1318.48 398.185C1320.03 397.475 1321.32 396.453 1322.34 395.099C1323.36 393.767 1324.07 392.124 1324.43 390.192L1333.46 393.278C1332.6 396.076 1331.24 398.518 1329.4 400.606C1327.56 402.693 1325.29 404.314 1322.54 405.446C1319.81 406.601 1316.66 407.178 1313.13 407.178C1308.53 407.178 1304.44 406.223 1300.91 404.291C1297.36 402.36 1294.63 399.584 1292.65 395.943C1290.7 392.301 1289.72 387.971 1289.72 382.931C1289.72 377.891 1290.7 373.561 1292.65 369.92C1294.61 366.278 1297.34 363.503 1300.87 361.571C1304.38 359.639 1308.37 358.684 1312.86 358.684V358.662Z" fill="#FF303E"/>
<path d="M1365.37 358.662C1369.9 358.662 1373.92 359.617 1377.41 361.549C1380.89 363.48 1383.6 366.256 1385.58 369.897C1387.53 373.539 1388.51 377.869 1388.51 382.909C1388.51 387.949 1387.53 392.279 1385.58 395.921C1383.62 399.562 1380.89 402.338 1377.41 404.269C1373.92 406.201 1369.92 407.156 1365.37 407.156C1360.82 407.156 1356.82 406.201 1353.34 404.269C1349.85 402.338 1347.12 399.562 1345.12 395.921C1343.12 392.279 1342.15 387.949 1342.15 382.909C1342.15 377.869 1343.15 373.539 1345.12 369.897C1347.12 366.256 1349.85 363.48 1353.34 361.549C1356.82 359.617 1360.82 358.662 1365.37 358.662ZM1365.37 366.5C1362.57 366.5 1360.2 367.144 1358.24 368.41C1356.29 369.675 1354.78 371.54 1353.71 373.961C1352.65 376.381 1352.14 379.378 1352.14 382.909C1352.14 386.439 1352.67 389.37 1353.71 391.813C1354.78 394.277 1356.29 396.143 1358.24 397.408C1360.2 398.674 1362.57 399.318 1365.37 399.318C1368.17 399.318 1370.52 398.674 1372.45 397.408C1374.39 396.143 1375.87 394.277 1376.94 391.813C1378.01 389.348 1378.52 386.395 1378.52 382.909C1378.52 379.423 1377.98 376.381 1376.94 373.961C1375.87 371.54 1374.39 369.698 1372.45 368.41C1370.52 367.144 1368.17 366.5 1365.37 366.5Z" fill="#FF303E"/>
<path d="M1406.12 351.757C1403.94 351.757 1402.28 351.224 1401.12 350.136C1399.97 349.048 1399.39 347.516 1399.39 345.517C1399.39 343.519 1399.97 342.009 1401.12 340.943C1402.28 339.878 1403.94 339.367 1406.12 339.367C1408.29 339.367 1409.87 339.9 1411.02 340.943C1412.18 342.009 1412.76 343.519 1412.76 345.517C1412.76 347.516 1412.18 349.048 1411.02 350.136C1409.87 351.224 1408.25 351.757 1406.12 351.757ZM1411.07 359.595V406.223H1401.1V359.595H1411.07Z" fill="#FF303E"/>
<path d="M1426.63 406.223V359.595H1435.49L1436.14 371.718L1434.83 370.408C1435.69 367.744 1436.96 365.501 1438.6 363.747C1440.24 361.993 1442.2 360.683 1444.48 359.883C1446.75 359.084 1449.17 358.662 1451.7 358.662C1454.99 358.662 1457.96 359.306 1460.6 360.572C1463.25 361.837 1465.33 363.747 1466.89 366.3C1468.44 368.854 1469.22 372.073 1469.22 376.003V406.223H1459.25V379.09C1459.25 374.494 1458.3 371.296 1456.41 369.52C1454.52 367.744 1452.12 366.855 1449.28 366.855C1447.24 366.855 1445.24 367.344 1443.31 368.299C1441.38 369.253 1439.78 370.808 1438.51 372.917C1437.25 375.026 1436.6 377.869 1436.6 381.399V406.201H1426.63V406.223Z" fill="#FF303E"/>
<path d="M1489.4 393.634C1491.51 393.634 1493.2 394.233 1494.49 395.454C1495.75 396.676 1496.4 398.296 1496.4 400.339C1496.4 402.382 1495.75 404.047 1494.49 405.291C1493.22 406.534 1491.51 407.156 1489.4 407.156C1487.29 407.156 1485.5 406.534 1484.23 405.291C1482.96 404.047 1482.32 402.404 1482.32 400.339C1482.32 398.274 1482.96 396.653 1484.23 395.454C1485.5 394.233 1487.23 393.634 1489.4 393.634Z" fill="#FF303E"/>
</svg>
